<svg width="206" height="58" viewBox="0 0 206 58" fill="none" xmlns="http://www.w3.org/2000/svg">
<g filter="url(#filter0_d_2246_189)">
<path d="M29.736 29.472C29.736 31.488 29.216 33.264 28.176 34.8C27.152 36.336 25.672 37.544 23.736 38.424C21.8 39.288 19.456 39.72 16.704 39.72C13.824 39.72 11.352 39.296 9.288 38.448C7.224 37.584 5.496 36.48 4.104 35.136L7.56 31.272C8.76 32.344 10.104 33.184 11.592 33.792C13.08 34.4 14.752 34.704 16.608 34.704C17.792 34.704 18.856 34.52 19.8 34.152C20.76 33.784 21.512 33.248 22.056 32.544C22.616 31.824 22.896 30.944 22.896 29.904C22.896 28.992 22.704 28.224 22.32 27.6C21.936 26.976 21.272 26.416 20.328 25.92C19.4 25.424 18.104 24.928 16.44 24.432C13.992 23.68 11.976 22.856 10.392 21.96C8.808 21.048 7.632 19.976 6.864 18.744C6.096 17.496 5.712 16.024 5.712 14.328C5.712 12.424 6.24 10.784 7.296 9.408C8.352 8.016 9.776 6.952 11.568 6.216C13.376 5.464 15.392 5.088 17.616 5.088C20.08 5.088 22.248 5.448 24.12 6.168C25.992 6.872 27.64 7.88 29.064 9.192L25.776 12.912C24.64 11.936 23.408 11.216 22.08 10.752C20.768 10.288 19.432 10.056 18.072 10.056C17 10.056 16.04 10.2 15.192 10.488C14.36 10.776 13.704 11.2 13.224 11.76C12.744 12.32 12.504 13.032 12.504 13.896C12.504 14.68 12.72 15.352 13.152 15.912C13.6 16.456 14.36 16.968 15.432 17.448C16.504 17.912 17.976 18.44 19.848 19.032C21.816 19.624 23.536 20.336 25.008 21.168C26.496 22 27.656 23.08 28.488 24.408C29.32 25.72 29.736 27.408 29.736 29.472ZM50.2613 13.584V34.512H56.9573V39H36.4853V34.512H43.9253V18.072H36.7253V13.584H50.2613ZM46.1573 0.767999C47.3253 0.767999 48.2693 1.128 48.9893 1.848C49.7253 2.568 50.0933 3.464 50.0933 4.536C50.0933 5.608 49.7253 6.512 48.9893 7.248C48.2693 7.968 47.3253 8.328 46.1573 8.328C44.9893 8.328 44.0373 7.968 43.3013 7.248C42.5653 6.512 42.1973 5.608 42.1973 4.536C42.1973 3.464 42.5653 2.568 43.3013 1.848C44.0373 1.128 44.9893 0.767999 46.1573 0.767999ZM86.3385 10.008L87.9225 14.952C86.9625 15.288 85.8825 15.528 84.6825 15.672C83.4825 15.8 82.1065 15.864 80.5545 15.864C82.1065 16.536 83.2825 17.392 84.0825 18.432C84.8985 19.456 85.3065 20.76 85.3065 22.344C85.3065 23.992 84.8825 25.464 84.0345 26.76C83.2025 28.056 82.0105 29.072 80.4585 29.808C78.9225 30.544 77.0905 30.912 74.9625 30.912C74.3065 30.912 73.7225 30.88 73.2105 30.816C72.6985 30.752 72.2025 30.664 71.7225 30.552C71.4025 30.728 71.1545 30.984 70.9785 31.32C70.8025 31.656 70.7145 32 70.7145 32.352C70.7145 32.832 70.8985 33.248 71.2665 33.6C71.6505 33.936 72.4665 34.104 73.7145 34.104H78.0345C79.9065 34.104 81.5465 34.424 82.9545 35.064C84.3785 35.688 85.4825 36.536 86.2665 37.608C87.0665 38.68 87.4665 39.912 87.4665 41.304C87.4665 43.864 86.3545 45.864 84.1305 47.304C81.9065 48.744 78.6585 49.464 74.3865 49.464C71.3305 49.464 68.9465 49.152 67.2345 48.528C65.5385 47.904 64.3465 46.992 63.6585 45.792C62.9705 44.608 62.6265 43.176 62.6265 41.496H68.2665C68.2665 42.312 68.4265 42.984 68.7465 43.512C69.0825 44.04 69.6985 44.432 70.5945 44.688C71.5065 44.944 72.8105 45.072 74.5065 45.072C76.2025 45.072 77.5305 44.936 78.4905 44.664C79.4665 44.392 80.1545 44 80.5545 43.488C80.9545 42.992 81.1545 42.408 81.1545 41.736C81.1545 40.824 80.7705 40.112 80.0025 39.6C79.2345 39.088 78.1465 38.832 76.7385 38.832H72.5385C69.9785 38.832 68.1145 38.336 66.9465 37.344C65.7785 36.336 65.1945 35.176 65.1945 33.864C65.1945 32.968 65.4345 32.112 65.9145 31.296C66.4105 30.464 67.1145 29.76 68.0265 29.184C66.4585 28.352 65.3225 27.36 64.6185 26.208C63.9305 25.04 63.5865 23.632 63.5865 21.984C63.5865 20.144 64.0505 18.544 64.9785 17.184C65.9065 15.824 67.1945 14.768 68.8425 14.016C70.4905 13.264 72.3865 12.888 74.5305 12.888C76.4985 12.904 78.1705 12.784 79.5465 12.528C80.9385 12.272 82.1625 11.92 83.2185 11.472C84.2905 11.024 85.3305 10.536 86.3385 10.008ZM74.6505 17.112C73.1465 17.112 71.9945 17.552 71.1945 18.432C70.4105 19.312 70.0185 20.48 70.0185 21.936C70.0185 23.44 70.4265 24.632 71.2425 25.512C72.0585 26.392 73.2025 26.832 74.6745 26.832C76.1305 26.832 77.2345 26.408 77.9865 25.56C78.7545 24.696 79.1385 23.464 79.1385 21.864C79.1385 20.264 78.7545 19.072 77.9865 18.288C77.2345 17.504 76.1225 17.112 74.6505 17.112ZM93.2078 39V13.584H98.7278L99.1838 16.728C100.272 15.448 101.496 14.488 102.856 13.848C104.216 13.192 105.68 12.864 107.248 12.864C109.536 12.864 111.28 13.528 112.48 14.856C113.68 16.168 114.28 18.016 114.28 20.4V39H107.944V22.872C107.944 21.592 107.864 20.568 107.704 19.8C107.544 19.016 107.24 18.456 106.792 18.12C106.344 17.768 105.696 17.592 104.848 17.592C104.16 17.592 103.496 17.744 102.856 18.048C102.232 18.352 101.64 18.76 101.08 19.272C100.536 19.784 100.024 20.352 99.5438 20.976V39H93.2078ZM157.106 13.584V31.2C157.106 32.576 157.378 33.544 157.922 34.104C158.466 34.664 159.258 34.944 160.298 34.944C161.29 34.944 162.258 34.648 163.202 34.056C164.146 33.448 164.914 32.68 165.506 31.752V13.584H171.842V39H166.322L165.986 35.88C165.074 37.128 163.906 38.08 162.482 38.736C161.058 39.392 159.586 39.72 158.066 39.72C155.618 39.72 153.786 39.032 152.57 37.656C151.37 36.264 150.77 34.368 150.77 31.968V13.584H157.106ZM192.68 12.864C194.92 12.864 196.712 13.416 198.056 14.52C199.416 15.608 200.4 17.152 201.008 19.152C201.632 21.152 201.944 23.512 201.944 26.232C201.944 28.84 201.568 31.16 200.816 33.192C200.064 35.224 198.96 36.824 197.504 37.992C196.064 39.144 194.288 39.72 192.176 39.72C189.584 39.72 187.488 38.8 185.888 36.96V48.792L179.552 49.464V13.584H185.12L185.456 16.68C186.464 15.368 187.592 14.408 188.84 13.8C190.088 13.176 191.368 12.864 192.68 12.864ZM190.832 17.616C189.76 17.616 188.816 17.936 188 18.576C187.2 19.216 186.496 20.008 185.888 20.952V32.328C186.464 33.192 187.12 33.84 187.856 34.272C188.592 34.704 189.424 34.92 190.352 34.92C191.968 34.92 193.2 34.248 194.048 32.904C194.912 31.544 195.344 29.344 195.344 26.304C195.344 24.16 195.168 22.456 194.816 21.192C194.48 19.912 193.976 19 193.304 18.456C192.632 17.896 191.808 17.616 190.832 17.616Z" fill="#C8DEF8"/>
</g>
<defs>
<filter id="filter0_d_2246_189" x="0.103516" y="0.768005" width="205.84" height="56.696" filterUnits="userSpaceOnUse" color-interpolation-filters="sRGB">
<feFlood flood-opacity="0" result="BackgroundImageFix"/>
<feColorMatrix in="SourceAlpha" type="matrix" values="0 0 0 0 0 0 0 0 0 0 0 0 0 0 0 0 0 0 127 0" result="hardAlpha"/>
<feOffset dy="4"/>
<feGaussianBlur stdDeviation="2"/>
<feComposite in2="hardAlpha" operator="out"/>
<feColorMatrix type="matrix" values="0 0 0 0 0 0 0 0 0 0 0 0 0 0 0 0 0 0 0.25 0"/>
<feBlend mode="normal" in2="BackgroundImageFix" result="effect1_dropShadow_2246_189"/>
<feBlend mode="normal" in="SourceGraphic" in2="effect1_dropShadow_2246_189" result="shape"/>
</filter>
</defs>
</svg>
