<svg width="971" height="462" viewBox="0 0 971 462" fill="none" xmlns="http://www.w3.org/2000/svg">
<path d="M327.5 111C327.5 97.469 338.469 86.5 352 86.5H607C620.531 86.5 631.5 97.469 631.5 111V437C631.5 450.531 620.531 461.5 607 461.5H352C338.469 461.5 327.5 450.531 327.5 437V111Z" fill="#2E322D" stroke="#CBC9C9"/>
<path d="M509.5 276C509.5 291.724 496.309 304.5 480 304.5C463.691 304.5 450.5 291.724 450.5 276C450.5 260.276 463.691 247.5 480 247.5C496.309 247.5 509.5 260.276 509.5 276Z" fill="#2E322D" stroke="#CBC9C9"/>
<line x1="480.5" y1="260" x2="480.5" y2="293" stroke="#ADADAC"/>
<line x1="496" y1="277.5" x2="463" y2="277.5" stroke="#ADADAC"/>
<path d="M664.5 111C664.5 97.469 675.469 86.5 689 86.5H946C959.531 86.5 970.5 97.469 970.5 111V437C970.5 450.531 959.531 461.5 946 461.5H689C675.469 461.5 664.5 450.531 664.5 437V111Z" fill="#2E322D" stroke="#CBC9C9"/>
<path d="M847.5 276C847.5 291.724 834.309 304.5 818 304.5C801.691 304.5 788.5 291.724 788.5 276C788.5 260.276 801.691 247.5 818 247.5C834.309 247.5 847.5 260.276 847.5 276Z" fill="#2E322D" stroke="#CBC9C9"/>
<line x1="834" y1="277.5" x2="801" y2="277.5" stroke="#ADADAC"/>
<line x1="818.5" y1="260" x2="818.5" y2="293" stroke="#ADADAC"/>
<path d="M0.5 115C0.5 101.469 11.469 90.5 25 90.5H270C283.531 90.5 294.5 101.469 294.5 115V437C294.5 450.531 283.531 461.5 270 461.5H25C11.469 461.5 0.5 450.531 0.5 437V115Z" fill="#2E322D" stroke="#CBC9C9"/>
<path d="M175.5 276C175.5 291.724 162.309 304.5 146 304.5C129.691 304.5 116.5 291.724 116.5 276C116.5 260.276 129.691 247.5 146 247.5C162.309 247.5 175.5 260.276 175.5 276Z" fill="#2E322D" stroke="#CBC9C9"/>
<line x1="146.5" y1="260" x2="146.5" y2="293" stroke="#ADADAC"/>
<line x1="164" y1="276.5" x2="131" y2="276.5" stroke="#ADADAC"/>
<path d="M26.384 26.442V36H23.216V26.478L14.846 11.214H18.302L24.872 23.634L31.514 11.214H34.754L26.384 26.442ZM46.4219 16.65C48.2099 16.65 49.7039 17.058 50.9039 17.874C52.1159 18.678 53.0219 19.818 53.6219 21.294C54.2339 22.77 54.5399 24.51 54.5399 26.514C54.5399 28.446 54.2279 30.156 53.6039 31.644C52.9799 33.132 52.0619 34.302 50.8499 35.154C49.6499 35.994 48.1619 36.414 46.3859 36.414C44.6099 36.414 43.1159 36.006 41.9039 35.19C40.6919 34.374 39.7739 33.228 39.1499 31.752C38.5379 30.264 38.2319 28.53 38.2319 26.55C38.2319 24.594 38.5439 22.872 39.1679 21.384C39.7919 19.896 40.7099 18.738 41.9219 17.91C43.1459 17.07 44.6459 16.65 46.4219 16.65ZM46.4219 19.116C44.7899 19.116 43.5539 19.722 42.7139 20.934C41.8859 22.134 41.4719 24.006 41.4719 26.55C41.4719 29.046 41.8799 30.9 42.6959 32.112C43.5239 33.324 44.7539 33.93 46.3859 33.93C48.0179 33.93 49.2419 33.324 50.0579 32.112C50.8859 30.9 51.2999 29.034 51.2999 26.514C51.2999 23.994 50.8919 22.134 50.0759 20.934C49.2599 19.722 48.0419 19.116 46.4219 19.116ZM63.8139 17.046V30.474C63.8139 31.722 64.0719 32.622 64.5879 33.174C65.1039 33.726 65.9079 34.002 66.9999 34.002C68.0439 34.002 69.0279 33.708 69.9519 33.12C70.8879 32.52 71.6139 31.812 72.1299 30.996V17.046H75.1539V36H72.5799L72.3279 33.444C71.5839 34.404 70.6659 35.142 69.5739 35.658C68.4819 36.162 67.3779 36.414 66.2619 36.414C64.4259 36.414 63.0519 35.928 62.1399 34.956C61.2399 33.972 60.7899 32.598 60.7899 30.834V17.046H63.8139ZM82.5558 36V33.678H85.5078V19.368H82.5558V17.046H87.8118L88.3698 21.528C89.1018 19.968 89.9898 18.762 91.0338 17.91C92.0778 17.058 93.4578 16.632 95.1738 16.632C95.7018 16.632 96.1698 16.674 96.5778 16.758C96.9978 16.83 97.4238 16.926 97.8558 17.046L96.9738 19.746C96.5778 19.638 96.2178 19.56 95.8938 19.512C95.5698 19.452 95.1978 19.422 94.7778 19.422C93.3258 19.422 92.0778 19.938 91.0338 20.97C89.9898 22.002 89.1558 23.562 88.5318 25.65V33.678H92.3838V36H82.5558ZM94.9398 23.454V19.332L95.2458 17.046H97.8558L97.4238 23.454H94.9398ZM133.216 36.414C131.26 36.414 129.556 35.94 128.104 34.992C126.664 34.044 125.548 32.622 124.756 30.726C123.964 28.83 123.568 26.454 123.568 23.598C123.568 21.462 123.85 19.596 124.414 18C124.99 16.404 125.764 15.072 126.736 14.004C127.72 12.936 128.83 12.138 130.066 11.61C131.314 11.082 132.604 10.818 133.936 10.818C135.556 10.818 136.9 11.052 137.968 11.52C139.036 11.976 140.056 12.648 141.028 13.536L139.138 15.498C138.382 14.79 137.584 14.268 136.744 13.932C135.916 13.596 134.986 13.428 133.954 13.428C133.054 13.428 132.184 13.602 131.344 13.95C130.504 14.298 129.748 14.868 129.076 15.66C128.416 16.44 127.888 17.478 127.492 18.774C127.108 20.07 126.916 21.678 126.916 23.598C126.916 25.986 127.162 27.93 127.654 29.43C128.158 30.93 128.896 32.034 129.868 32.742C130.852 33.438 132.064 33.786 133.504 33.786C134.368 33.786 135.184 33.684 135.952 33.48C136.732 33.276 137.488 32.982 138.22 32.598V25.038H133.342L132.964 22.446H141.316V34.254C140.2 34.854 139.012 35.364 137.752 35.784C136.492 36.204 134.98 36.414 133.216 36.414ZM160.706 31.86C160.706 32.616 160.832 33.168 161.084 33.516C161.336 33.864 161.726 34.122 162.254 34.29L161.516 36.414C160.7 36.306 159.986 36.048 159.374 35.64C158.762 35.22 158.318 34.59 158.042 33.75C157.358 34.626 156.506 35.292 155.486 35.748C154.466 36.192 153.338 36.414 152.102 36.414C150.206 36.414 148.712 35.88 147.62 34.812C146.528 33.744 145.982 32.328 145.982 30.564C145.982 28.608 146.744 27.108 148.268 26.064C149.792 25.02 151.994 24.498 154.874 24.498H157.664V22.914C157.664 21.546 157.262 20.58 156.458 20.016C155.666 19.44 154.562 19.152 153.146 19.152C152.522 19.152 151.79 19.23 150.95 19.386C150.11 19.53 149.198 19.776 148.214 20.124L147.422 17.838C148.586 17.406 149.678 17.1 150.698 16.92C151.718 16.74 152.69 16.65 153.614 16.65C155.978 16.65 157.748 17.202 158.924 18.306C160.112 19.398 160.706 20.886 160.706 22.77V31.86ZM152.876 34.11C153.812 34.11 154.706 33.876 155.558 33.408C156.41 32.928 157.112 32.268 157.664 31.428V26.55H154.928C152.84 26.55 151.364 26.91 150.5 27.63C149.648 28.35 149.222 29.316 149.222 30.528C149.222 31.704 149.522 32.598 150.122 33.21C150.734 33.81 151.652 34.11 152.876 34.11ZM176.1 9.414V31.32C176.1 32.256 176.388 32.922 176.964 33.318C177.552 33.702 178.308 33.894 179.232 33.894C179.808 33.894 180.354 33.834 180.87 33.714C181.386 33.594 181.902 33.432 182.418 33.228L183.228 35.442C182.712 35.694 182.07 35.916 181.302 36.108C180.546 36.312 179.688 36.414 178.728 36.414C177.048 36.414 175.686 35.952 174.642 35.028C173.598 34.092 173.076 32.802 173.076 31.158V11.808H167.262V9.414H176.1ZM197.686 9.414V31.32C197.686 32.256 197.974 32.922 198.55 33.318C199.138 33.702 199.894 33.894 200.818 33.894C201.394 33.894 201.94 33.834 202.456 33.714C202.972 33.594 203.488 33.432 204.004 33.228L204.814 35.442C204.298 35.694 203.656 35.916 202.888 36.108C202.132 36.312 201.274 36.414 200.314 36.414C198.634 36.414 197.272 35.952 196.228 35.028C195.184 34.092 194.662 32.802 194.662 31.158V11.808H188.848V9.414H197.686ZM214.267 27.594C214.327 29.058 214.609 30.258 215.113 31.194C215.617 32.118 216.283 32.802 217.111 33.246C217.939 33.678 218.839 33.894 219.811 33.894C220.783 33.894 221.659 33.75 222.439 33.462C223.231 33.174 224.041 32.748 224.869 32.184L226.291 34.182C225.403 34.878 224.389 35.424 223.249 35.82C222.121 36.216 220.963 36.414 219.775 36.414C217.939 36.414 216.373 36 215.077 35.172C213.781 34.344 212.791 33.192 212.107 31.716C211.435 30.228 211.099 28.506 211.099 26.55C211.099 24.63 211.441 22.926 212.125 21.438C212.809 19.95 213.769 18.78 215.005 17.928C216.241 17.076 217.699 16.65 219.379 16.65C220.975 16.65 222.349 17.028 223.501 17.784C224.653 18.528 225.535 19.596 226.147 20.988C226.771 22.368 227.083 24.018 227.083 25.938C227.083 26.262 227.077 26.568 227.065 26.856C227.053 27.132 227.035 27.378 227.011 27.594H214.267ZM219.415 19.134C218.011 19.134 216.835 19.632 215.887 20.628C214.951 21.624 214.417 23.166 214.285 25.254H224.167C224.131 23.226 223.687 21.702 222.835 20.682C221.983 19.65 220.843 19.134 219.415 19.134ZM233.657 36V33.678H236.609V19.368H233.657V17.046H238.913L239.471 21.528C240.203 19.968 241.091 18.762 242.135 17.91C243.179 17.058 244.559 16.632 246.275 16.632C246.803 16.632 247.271 16.674 247.679 16.758C248.099 16.83 248.525 16.926 248.957 17.046L248.075 19.746C247.679 19.638 247.319 19.56 246.995 19.512C246.671 19.452 246.299 19.422 245.879 19.422C244.427 19.422 243.179 19.938 242.135 20.97C241.091 22.002 240.257 23.562 239.633 25.65V33.678H243.485V36H233.657ZM246.041 23.454V19.332L246.347 17.046H248.957L248.525 23.454H246.041ZM270.831 17.046L264.171 36.126C263.727 37.41 263.163 38.586 262.479 39.654C261.807 40.722 260.925 41.604 259.833 42.3C258.753 43.008 257.379 43.446 255.711 43.614L255.243 41.202C256.551 40.986 257.583 40.656 258.339 40.212C259.095 39.768 259.689 39.198 260.121 38.502C260.565 37.806 260.955 36.972 261.291 36H260.283L253.659 17.046H256.899L262.335 33.696L267.699 17.046H270.831Z" fill="white"/>
</svg>
