<svg width="236" height="56" viewBox="0 0 236 56" fill="none" xmlns="http://www.w3.org/2000/svg">
<rect width="236" height="56" rx="28" fill="#6A4DBF"/>
<path d="M90.952 35.824V37H81.064V20.2H82.432V35.824H90.952ZM97.8807 37.24C96.0247 37.24 94.6247 36.664 93.6807 35.512C92.7367 34.36 92.2647 32.648 92.2647 30.376C92.2647 25.832 94.1367 23.56 97.8807 23.56C101.625 23.56 103.497 25.832 103.497 30.376C103.497 32.648 103.025 34.36 102.081 35.512C101.137 36.664 99.7367 37.24 97.8807 37.24ZM97.8807 36.112C99.3367 36.112 100.409 35.648 101.097 34.72C101.801 33.776 102.153 32.328 102.153 30.376C102.153 28.424 101.801 26.984 101.097 26.056C100.409 25.128 99.3367 24.664 97.8807 24.664C96.4247 24.664 95.3447 25.128 94.6407 26.056C93.9527 26.984 93.6087 28.424 93.6087 30.376C93.6087 32.328 93.9527 33.776 94.6407 34.72C95.3447 35.648 96.4247 36.112 97.8807 36.112ZM117.173 23.104C117.461 23.104 117.669 23.168 117.797 23.296C117.925 23.408 117.989 23.616 117.989 23.92C117.989 24.08 117.981 24.2 117.965 24.28C116.717 24.28 115.829 24.496 115.301 24.928C116.069 25.696 116.453 26.712 116.453 27.976C116.453 31.048 114.685 32.584 111.149 32.584C109.949 32.584 109.085 32.664 108.557 32.824C108.045 32.984 107.789 33.256 107.789 33.64C107.789 34.088 108.077 34.4 108.653 34.576C109.229 34.736 110.261 34.816 111.749 34.816C113.637 34.816 115.077 35.096 116.069 35.656C117.061 36.216 117.557 37.032 117.557 38.104C117.557 39.368 117.045 40.304 116.021 40.912C115.013 41.536 113.469 41.848 111.389 41.848C109.549 41.848 108.133 41.552 107.141 40.96C106.149 40.384 105.653 39.544 105.653 38.44C105.653 37.736 105.869 37.144 106.301 36.664C106.733 36.168 107.357 35.808 108.173 35.584V35.512C107.693 35.4 107.309 35.184 107.021 34.864C106.749 34.544 106.613 34.16 106.613 33.712C106.613 33.264 106.773 32.888 107.093 32.584C107.429 32.28 107.893 32.08 108.485 31.984C107.765 31.6 107.197 31.088 106.781 30.448C106.381 29.808 106.181 29.08 106.181 28.264C106.181 25.128 107.989 23.56 111.605 23.56C112.741 23.56 113.709 23.808 114.509 24.304C114.925 23.936 115.365 23.648 115.829 23.44C116.309 23.216 116.757 23.104 117.173 23.104ZM111.293 31.456C112.605 31.456 113.565 31.192 114.173 30.664C114.781 30.12 115.085 29.256 115.085 28.072C115.085 26.904 114.773 26.04 114.149 25.48C113.541 24.92 112.589 24.64 111.293 24.64C108.781 24.64 107.525 25.784 107.525 28.072C107.525 29.16 107.845 30 108.485 30.592C109.141 31.168 110.077 31.456 111.293 31.456ZM116.189 38.248C116.189 37.448 115.821 36.872 115.085 36.52C114.365 36.168 113.165 35.992 111.485 35.992C109.949 35.992 108.821 36.176 108.101 36.544C107.381 36.896 107.021 37.464 107.021 38.248C107.021 39.096 107.373 39.72 108.077 40.12C108.797 40.52 109.901 40.72 111.389 40.72C113.053 40.72 114.269 40.52 115.037 40.12C115.805 39.736 116.189 39.112 116.189 38.248ZM128.208 20.2H129.576V37H128.208V20.2ZM145.55 34.168C145.55 34.984 145.574 35.568 145.622 35.92C145.67 36.256 145.766 36.56 145.91 36.832C145.782 36.912 145.63 36.976 145.454 37.024C145.294 37.088 145.134 37.12 144.974 37.12C144.702 37.12 144.51 36.928 144.398 36.544C144.286 36.16 144.23 35.496 144.23 34.552V28.048C144.23 26.864 143.99 26 143.51 25.456C143.046 24.896 142.302 24.616 141.278 24.616C140.494 24.616 139.694 24.808 138.878 25.192C138.062 25.576 137.286 26.12 136.55 26.824V37H135.23V27.688C135.23 26.472 135.206 25.608 135.158 25.096C135.126 24.568 135.054 24.224 134.942 24.064C135.31 23.824 135.638 23.704 135.926 23.704C136.15 23.704 136.31 23.824 136.406 24.064C136.502 24.304 136.55 24.688 136.55 25.216V25.48C138.07 24.2 139.702 23.56 141.446 23.56C142.822 23.56 143.846 23.936 144.518 24.688C145.206 25.424 145.55 26.552 145.55 28.072V34.168Z" fill="black"/>
</svg>
