<svg width="236" height="162" viewBox="0 0 236 162" fill="none" xmlns="http://www.w3.org/2000/svg">
<rect width="236" height="55" rx="27.5" fill="#D9D9D9"/>
<rect y="107" width="236" height="55" rx="27.5" fill="#D9D9D9"/>
<path d="M66.056 126.2C68.248 126.2 69.904 126.656 71.024 127.568C72.16 128.464 72.728 129.792 72.728 131.552C72.728 133.344 72.16 134.696 71.024 135.608C69.904 136.52 68.248 136.976 66.056 136.976H62.432V143H61.064V126.2H66.056ZM66.056 135.752C67.848 135.752 69.176 135.408 70.04 134.72C70.92 134.016 71.36 132.96 71.36 131.552C71.36 130.16 70.92 129.128 70.04 128.456C69.176 127.768 67.848 127.424 66.056 127.424H62.432V135.752H66.056ZM85.1896 139.832C85.1896 140.568 85.2456 141.144 85.3576 141.56C85.4856 141.96 85.7016 142.304 86.0056 142.592C85.9256 142.736 85.7976 142.864 85.6216 142.976C85.4456 143.072 85.2776 143.12 85.1176 143.12C84.7816 143.12 84.5016 142.912 84.2776 142.496C84.0696 142.064 83.9416 141.496 83.8936 140.792C83.3496 141.544 82.6296 142.144 81.7336 142.592C80.8376 143.024 79.8856 143.24 78.8776 143.24C77.7256 143.24 76.7816 142.92 76.0456 142.28C75.3256 141.624 74.9656 140.784 74.9656 139.76C74.9656 138.272 75.7176 137.112 77.2216 136.28C78.7256 135.432 80.9416 134.944 83.8696 134.816V134.048C83.8696 131.792 82.7256 130.664 80.4376 130.664C79.6376 130.664 78.8936 130.816 78.2056 131.12C77.5336 131.424 76.8696 131.912 76.2136 132.584C76.1336 132.664 76.0216 132.704 75.8776 132.704C75.7336 132.704 75.5816 132.648 75.4216 132.536C75.2616 132.424 75.1176 132.264 74.9896 132.056C75.6776 131.256 76.5016 130.64 77.4616 130.208C78.4216 129.776 79.4376 129.56 80.5096 129.56C81.9816 129.56 83.1256 129.96 83.9416 130.76C84.7736 131.544 85.1896 132.64 85.1896 134.048V139.832ZM78.9976 142.136C79.9256 142.136 80.8136 141.88 81.6616 141.368C82.5096 140.84 83.2456 140.104 83.8696 139.16V135.92C81.3256 136.032 79.4296 136.4 78.1816 137.024C76.9336 137.648 76.3096 138.552 76.3096 139.736C76.3096 140.488 76.5496 141.08 77.0296 141.512C77.5096 141.928 78.1656 142.136 78.9976 142.136ZM92.9804 143.24C92.1644 143.24 91.3804 143.12 90.6284 142.88C89.8764 142.624 89.2684 142.296 88.8044 141.896C88.3404 141.496 88.1084 141.08 88.1084 140.648C88.1084 140.456 88.1644 140.288 88.2764 140.144C88.4044 140 88.5564 139.912 88.7324 139.88C89.2124 140.632 89.7804 141.2 90.4364 141.584C91.1084 141.952 91.9884 142.136 93.0764 142.136C94.1484 142.136 94.9884 141.896 95.5964 141.416C96.2044 140.936 96.5084 140.272 96.5084 139.424C96.5084 138.88 96.3404 138.44 96.0044 138.104C95.6844 137.768 95.2764 137.512 94.7804 137.336C94.3004 137.144 93.6444 136.944 92.8124 136.736C91.8684 136.496 91.1004 136.264 90.5084 136.04C89.9324 135.816 89.4364 135.472 89.0204 135.008C88.6204 134.528 88.4204 133.904 88.4204 133.136C88.4204 132.336 88.6364 131.672 89.0684 131.144C89.5004 130.6 90.0524 130.2 90.7244 129.944C91.3964 129.688 92.1084 129.56 92.8604 129.56C93.8844 129.56 94.7804 129.776 95.5484 130.208C96.3324 130.624 96.9724 131.232 97.4684 132.032C97.2924 132.208 97.1404 132.336 97.0124 132.416C96.9004 132.48 96.7804 132.512 96.6524 132.512C96.4604 132.512 96.2764 132.4 96.1004 132.176C95.6844 131.664 95.2204 131.28 94.7084 131.024C94.2124 130.768 93.5884 130.64 92.8364 130.64C91.9244 130.64 91.1804 130.84 90.6044 131.24C90.0284 131.64 89.7404 132.248 89.7404 133.064C89.7404 133.576 89.9004 134 90.2204 134.336C90.5404 134.656 90.9324 134.904 91.3964 135.08C91.8764 135.256 92.5164 135.44 93.3164 135.632C94.2924 135.888 95.0764 136.136 95.6684 136.376C96.2764 136.616 96.7884 136.984 97.2044 137.48C97.6204 137.96 97.8284 138.608 97.8284 139.424C97.8284 140.592 97.3884 141.52 96.5084 142.208C95.6444 142.896 94.4684 143.24 92.9804 143.24ZM104.629 143.24C103.813 143.24 103.029 143.12 102.277 142.88C101.525 142.624 100.917 142.296 100.453 141.896C99.9889 141.496 99.7569 141.08 99.7569 140.648C99.7569 140.456 99.8129 140.288 99.9249 140.144C100.053 140 100.205 139.912 100.381 139.88C100.861 140.632 101.429 141.2 102.085 141.584C102.757 141.952 103.637 142.136 104.725 142.136C105.797 142.136 106.637 141.896 107.245 141.416C107.853 140.936 108.157 140.272 108.157 139.424C108.157 138.88 107.989 138.44 107.653 138.104C107.333 137.768 106.925 137.512 106.429 137.336C105.949 137.144 105.293 136.944 104.461 136.736C103.517 136.496 102.749 136.264 102.157 136.04C101.581 135.816 101.085 135.472 100.669 135.008C100.269 134.528 100.069 133.904 100.069 133.136C100.069 132.336 100.285 131.672 100.717 131.144C101.149 130.6 101.701 130.2 102.373 129.944C103.045 129.688 103.757 129.56 104.509 129.56C105.533 129.56 106.429 129.776 107.197 130.208C107.981 130.624 108.621 131.232 109.117 132.032C108.941 132.208 108.789 132.336 108.661 132.416C108.549 132.48 108.429 132.512 108.301 132.512C108.109 132.512 107.925 132.4 107.749 132.176C107.333 131.664 106.869 131.28 106.357 131.024C105.861 130.768 105.237 130.64 104.485 130.64C103.573 130.64 102.829 130.84 102.253 131.24C101.677 131.64 101.389 132.248 101.389 133.064C101.389 133.576 101.549 134 101.869 134.336C102.189 134.656 102.581 134.904 103.045 135.08C103.525 135.256 104.165 135.44 104.965 135.632C105.941 135.888 106.725 136.136 107.317 136.376C107.925 136.616 108.437 136.984 108.853 137.48C109.269 137.96 109.477 138.608 109.477 139.424C109.477 140.592 109.037 141.52 108.157 142.208C107.293 142.896 106.117 143.24 104.629 143.24ZM127.821 129.8C127.165 134.488 125.877 138.888 123.957 143H122.829C121.981 141.176 121.285 139.448 120.741 137.816C120.213 136.184 119.805 134.528 119.517 132.848C119.229 134.544 118.821 136.208 118.293 137.84C117.781 139.472 117.117 141.192 116.301 143H115.125C114.165 141 113.365 138.928 112.725 136.784C112.101 134.64 111.605 132.312 111.237 129.8H112.605C112.861 131.896 113.245 133.872 113.757 135.728C114.269 137.584 114.941 139.408 115.773 141.2C117.277 137.904 118.325 134.104 118.917 129.8H120.165C120.821 134.216 121.909 138.032 123.429 141.248C125.061 137.504 126.053 133.688 126.405 129.8H127.821ZM135.256 143.24C133.4 143.24 132 142.664 131.056 141.512C130.112 140.36 129.64 138.648 129.64 136.376C129.64 131.832 131.512 129.56 135.256 129.56C139 129.56 140.872 131.832 140.872 136.376C140.872 138.648 140.4 140.36 139.456 141.512C138.512 142.664 137.112 143.24 135.256 143.24ZM135.256 142.112C136.712 142.112 137.784 141.648 138.472 140.72C139.176 139.776 139.528 138.328 139.528 136.376C139.528 134.424 139.176 132.984 138.472 132.056C137.784 131.128 136.712 130.664 135.256 130.664C133.8 130.664 132.72 131.128 132.016 132.056C131.328 132.984 130.984 134.424 130.984 136.376C130.984 138.328 131.328 139.776 132.016 140.72C132.72 141.648 133.8 142.112 135.256 142.112ZM149.148 129.632C149.692 129.632 150.116 129.72 150.42 129.896C150.74 130.056 150.9 130.288 150.9 130.592C150.9 130.864 150.812 131.064 150.636 131.192C150.268 130.968 149.732 130.856 149.028 130.856C148.292 130.856 147.628 131.064 147.036 131.48C146.46 131.896 146.004 132.472 145.668 133.208C145.348 133.928 145.188 134.752 145.188 135.68V143H143.868V129.8H145.188V132.272C145.588 131.504 146.148 130.872 146.868 130.376C147.588 129.88 148.348 129.632 149.148 129.632ZM163.606 139.928C163.606 141.208 163.718 142.168 163.942 142.808C163.638 143 163.358 143.096 163.102 143.096C162.67 143.096 162.406 142.552 162.31 141.464C161.318 142.648 159.918 143.24 158.11 143.24C156.366 143.24 154.998 142.64 154.006 141.44C153.014 140.224 152.518 138.56 152.518 136.448C152.518 134.288 153.038 132.6 154.078 131.384C155.134 130.168 156.59 129.56 158.446 129.56C159.118 129.56 159.806 129.672 160.51 129.896C161.214 130.12 161.806 130.416 162.286 130.784V124.016H163.606V139.928ZM158.23 142.112C159.91 142.112 161.262 141.44 162.286 140.096V132.104C161.774 131.64 161.182 131.28 160.51 131.024C159.838 130.768 159.15 130.64 158.446 130.64C157.006 130.64 155.878 131.152 155.062 132.176C154.262 133.2 153.862 134.624 153.862 136.448C153.862 138.24 154.246 139.632 155.014 140.624C155.782 141.616 156.854 142.112 158.23 142.112Z" fill="black"/>
<path d="M67.544 33.24C65.352 33.24 63.72 32.728 62.648 31.704C61.592 30.664 61.064 29.088 61.064 26.976V16.2H62.432V27.096C62.432 28.776 62.848 30.024 63.68 30.84C64.512 31.64 65.8 32.04 67.544 32.04C69.304 32.04 70.592 31.64 71.408 30.84C72.224 30.04 72.632 28.792 72.632 27.096V16.2H74V26.976C74 29.12 73.48 30.704 72.44 31.728C71.4 32.736 69.768 33.24 67.544 33.24ZM81.8242 33.24C81.0082 33.24 80.2242 33.12 79.4722 32.88C78.7202 32.624 78.1122 32.296 77.6482 31.896C77.1842 31.496 76.9522 31.08 76.9522 30.648C76.9522 30.456 77.0082 30.288 77.1202 30.144C77.2482 30 77.4002 29.912 77.5762 29.88C78.0562 30.632 78.6242 31.2 79.2802 31.584C79.9522 31.952 80.8322 32.136 81.9202 32.136C82.9922 32.136 83.8322 31.896 84.4402 31.416C85.0482 30.936 85.3522 30.272 85.3522 29.424C85.3522 28.88 85.1842 28.44 84.8482 28.104C84.5282 27.768 84.1202 27.512 83.6242 27.336C83.1442 27.144 82.4882 26.944 81.6562 26.736C80.7122 26.496 79.9442 26.264 79.3522 26.04C78.7762 25.816 78.2802 25.472 77.8642 25.008C77.4642 24.528 77.2642 23.904 77.2642 23.136C77.2642 22.336 77.4802 21.672 77.9122 21.144C78.3442 20.6 78.8962 20.2 79.5682 19.944C80.2402 19.688 80.9522 19.56 81.7042 19.56C82.7282 19.56 83.6242 19.776 84.3922 20.208C85.1762 20.624 85.8162 21.232 86.3122 22.032C86.1362 22.208 85.9842 22.336 85.8562 22.416C85.7442 22.48 85.6242 22.512 85.4962 22.512C85.3042 22.512 85.1202 22.4 84.9442 22.176C84.5282 21.664 84.0642 21.28 83.5522 21.024C83.0562 20.768 82.4322 20.64 81.6802 20.64C80.7682 20.64 80.0242 20.84 79.4482 21.24C78.8722 21.64 78.5842 22.248 78.5842 23.064C78.5842 23.576 78.7442 24 79.0642 24.336C79.3842 24.656 79.7762 24.904 80.2402 25.08C80.7202 25.256 81.3602 25.44 82.1602 25.632C83.1362 25.888 83.9202 26.136 84.5122 26.376C85.1202 26.616 85.6322 26.984 86.0482 27.48C86.4642 27.96 86.6722 28.608 86.6722 29.424C86.6722 30.592 86.2322 31.52 85.3522 32.208C84.4882 32.896 83.3122 33.24 81.8242 33.24ZM100.121 25.632C100.121 25.968 100.105 26.28 100.073 26.568H90.1846C90.2326 28.28 90.6486 29.632 91.4326 30.624C92.2166 31.6 93.2726 32.088 94.6006 32.088C95.4966 32.088 96.2486 31.92 96.8566 31.584C97.4806 31.248 98.0246 30.704 98.4886 29.952C98.6646 29.68 98.8566 29.544 99.0646 29.544C99.2406 29.544 99.5046 29.656 99.8566 29.88C99.4566 30.952 98.8006 31.784 97.8886 32.376C96.9766 32.952 95.8806 33.24 94.6006 33.24C93.4326 33.24 92.4166 32.96 91.5526 32.4C90.6886 31.84 90.0166 31.048 89.5366 30.024C89.0726 28.984 88.8406 27.768 88.8406 26.376C88.8406 24.232 89.3526 22.56 90.3766 21.36C91.4166 20.16 92.8566 19.56 94.6966 19.56C96.4086 19.56 97.7366 20.096 98.6806 21.168C99.6406 22.24 100.121 23.728 100.121 25.632ZM98.7766 25.464C98.7766 23.912 98.4246 22.736 97.7206 21.936C97.0166 21.12 95.9846 20.712 94.6246 20.712C93.3446 20.712 92.3126 21.128 91.5286 21.96C90.7606 22.792 90.3206 23.96 90.2086 25.464H98.7766ZM108.39 19.632C108.934 19.632 109.358 19.72 109.662 19.896C109.982 20.056 110.142 20.288 110.142 20.592C110.142 20.864 110.054 21.064 109.878 21.192C109.51 20.968 108.974 20.856 108.27 20.856C107.534 20.856 106.87 21.064 106.278 21.48C105.702 21.896 105.246 22.472 104.91 23.208C104.59 23.928 104.43 24.752 104.43 25.68V33H103.11V19.8H104.43V22.272C104.83 21.504 105.39 20.872 106.11 20.376C106.83 19.88 107.59 19.632 108.39 19.632ZM123.16 30.168C123.16 30.984 123.184 31.568 123.232 31.92C123.28 32.256 123.376 32.56 123.52 32.832C123.392 32.912 123.24 32.976 123.064 33.024C122.904 33.088 122.744 33.12 122.584 33.12C122.312 33.12 122.12 32.928 122.008 32.544C121.896 32.16 121.84 31.496 121.84 30.552V24.048C121.84 22.864 121.6 22 121.12 21.456C120.656 20.896 119.912 20.616 118.888 20.616C118.104 20.616 117.304 20.808 116.488 21.192C115.672 21.576 114.896 22.12 114.16 22.824V33H112.84V23.688C112.84 22.472 112.816 21.608 112.768 21.096C112.736 20.568 112.664 20.224 112.552 20.064C112.92 19.824 113.248 19.704 113.536 19.704C113.76 19.704 113.92 19.824 114.016 20.064C114.112 20.304 114.16 20.688 114.16 21.216V21.48C115.68 20.2 117.312 19.56 119.056 19.56C120.432 19.56 121.456 19.936 122.128 20.688C122.816 21.424 123.16 22.552 123.16 24.072V30.168ZM136.752 29.832C136.752 30.568 136.808 31.144 136.92 31.56C137.048 31.96 137.264 32.304 137.568 32.592C137.488 32.736 137.36 32.864 137.184 32.976C137.008 33.072 136.84 33.12 136.68 33.12C136.344 33.12 136.064 32.912 135.84 32.496C135.632 32.064 135.504 31.496 135.456 30.792C134.912 31.544 134.192 32.144 133.296 32.592C132.4 33.024 131.448 33.24 130.44 33.24C129.288 33.24 128.344 32.92 127.608 32.28C126.888 31.624 126.528 30.784 126.528 29.76C126.528 28.272 127.28 27.112 128.784 26.28C130.288 25.432 132.504 24.944 135.432 24.816V24.048C135.432 21.792 134.288 20.664 132 20.664C131.2 20.664 130.456 20.816 129.768 21.12C129.096 21.424 128.432 21.912 127.776 22.584C127.696 22.664 127.584 22.704 127.44 22.704C127.296 22.704 127.144 22.648 126.984 22.536C126.824 22.424 126.68 22.264 126.552 22.056C127.24 21.256 128.064 20.64 129.024 20.208C129.984 19.776 131 19.56 132.072 19.56C133.544 19.56 134.688 19.96 135.504 20.76C136.336 21.544 136.752 22.64 136.752 24.048V29.832ZM130.56 32.136C131.488 32.136 132.376 31.88 133.224 31.368C134.072 30.84 134.808 30.104 135.432 29.16V25.92C132.888 26.032 130.992 26.4 129.744 27.024C128.496 27.648 127.872 28.552 127.872 29.736C127.872 30.488 128.112 31.08 128.592 31.512C129.072 31.928 129.728 32.136 130.56 32.136ZM154.335 19.56C155.583 19.56 156.575 19.92 157.311 20.64C158.047 21.344 158.415 22.304 158.415 23.52V33H157.095V23.592C157.095 21.624 156.103 20.64 154.119 20.64C153.415 20.64 152.727 20.8 152.055 21.12C151.383 21.44 150.767 21.904 150.207 22.512C150.255 22.8 150.279 23.104 150.279 23.424V33H148.959V23.472C148.959 22.544 148.735 21.84 148.287 21.36C147.855 20.88 147.215 20.64 146.367 20.64C144.879 20.64 143.495 21.304 142.215 22.632V33H140.895V23.688C140.895 22.472 140.871 21.608 140.823 21.096C140.791 20.568 140.719 20.224 140.607 20.064C140.975 19.824 141.303 19.704 141.591 19.704C142.007 19.704 142.215 20.208 142.215 21.216V21.312C143.479 20.144 144.919 19.56 146.535 19.56C147.287 19.56 147.943 19.728 148.503 20.064C149.079 20.384 149.519 20.84 149.823 21.432C151.071 20.184 152.575 19.56 154.335 19.56ZM173.082 25.632C173.082 25.968 173.066 26.28 173.034 26.568H163.146C163.194 28.28 163.61 29.632 164.394 30.624C165.178 31.6 166.234 32.088 167.562 32.088C168.458 32.088 169.21 31.92 169.818 31.584C170.442 31.248 170.986 30.704 171.45 29.952C171.626 29.68 171.818 29.544 172.026 29.544C172.202 29.544 172.466 29.656 172.818 29.88C172.418 30.952 171.762 31.784 170.85 32.376C169.938 32.952 168.842 33.24 167.562 33.24C166.394 33.24 165.378 32.96 164.514 32.4C163.65 31.84 162.978 31.048 162.498 30.024C162.034 28.984 161.802 27.768 161.802 26.376C161.802 24.232 162.314 22.56 163.338 21.36C164.378 20.16 165.818 19.56 167.658 19.56C169.37 19.56 170.698 20.096 171.642 21.168C172.602 22.24 173.082 23.728 173.082 25.632ZM171.738 25.464C171.738 23.912 171.386 22.736 170.682 21.936C169.978 21.12 168.946 20.712 167.586 20.712C166.306 20.712 165.274 21.128 164.49 21.96C163.722 22.792 163.282 23.96 163.17 25.464H171.738Z" fill="black"/>
</svg>
