<svg width="133" height="31" viewBox="0 0 133 31" fill="none" xmlns="http://www.w3.org/2000/svg">
<path d="M2.288 10.6V14.872H7.28V15.672H2.288V21H1.376V9.8H7.968V10.6H2.288ZM12.8684 21.16C11.631 21.16 10.6977 20.776 10.0684 20.008C9.43904 19.24 9.12438 18.0987 9.12438 16.584C9.12438 13.5547 10.3724 12.04 12.8684 12.04C15.3644 12.04 16.6124 13.5547 16.6124 16.584C16.6124 18.0987 16.2977 19.24 15.6684 20.008C15.039 20.776 14.1057 21.16 12.8684 21.16ZM12.8684 20.408C13.839 20.408 14.5537 20.0987 15.0124 19.48C15.4817 18.8507 15.7164 17.8853 15.7164 16.584C15.7164 15.2827 15.4817 14.3227 15.0124 13.704C14.5537 13.0853 13.839 12.776 12.8684 12.776C11.8977 12.776 11.1777 13.0853 10.7084 13.704C10.2497 14.3227 10.0204 15.2827 10.0204 16.584C10.0204 17.8853 10.2497 18.8507 10.7084 19.48C11.1777 20.0987 11.8977 20.408 12.8684 20.408ZM22.13 12.088C22.4927 12.088 22.7753 12.1467 22.978 12.264C23.1913 12.3707 23.298 12.5253 23.298 12.728C23.298 12.9093 23.2393 13.0427 23.122 13.128C22.8767 12.9787 22.5193 12.904 22.05 12.904C21.5593 12.904 21.1167 13.0427 20.722 13.32C20.338 13.5973 20.034 13.9813 19.81 14.472C19.5967 14.952 19.49 15.5013 19.49 16.12V21H18.61V12.2H19.49V13.848C19.7567 13.336 20.13 12.9147 20.61 12.584C21.09 12.2533 21.5967 12.088 22.13 12.088ZM32.1363 11.736C32.3283 11.736 32.4669 11.7787 32.5523 11.864C32.6376 11.9387 32.6803 12.0773 32.6803 12.28C32.6803 12.3867 32.6749 12.4667 32.6643 12.52C31.8323 12.52 31.2403 12.664 30.8883 12.952C31.4003 13.464 31.6562 14.1413 31.6562 14.984C31.6562 17.032 30.4776 18.056 28.1203 18.056C27.3203 18.056 26.7443 18.1093 26.3923 18.216C26.0509 18.3227 25.8803 18.504 25.8803 18.76C25.8803 19.0587 26.0723 19.2667 26.4563 19.384C26.8403 19.4907 27.5283 19.544 28.5203 19.544C29.7789 19.544 30.7389 19.7307 31.4003 20.104C32.0616 20.4773 32.3923 21.0213 32.3923 21.736C32.3923 22.5787 32.0509 23.2027 31.3683 23.608C30.6963 24.024 29.6669 24.232 28.2803 24.232C27.0536 24.232 26.1096 24.0347 25.4483 23.64C24.7869 23.256 24.4563 22.696 24.4563 21.96C24.4563 21.4907 24.6003 21.096 24.8883 20.776C25.1763 20.4453 25.5923 20.2053 26.1363 20.056V20.008C25.8163 19.9333 25.5603 19.7893 25.3683 19.576C25.1869 19.3627 25.0963 19.1067 25.0963 18.808C25.0963 18.5093 25.2029 18.2587 25.4163 18.056C25.6403 17.8533 25.9496 17.72 26.3443 17.656C25.8643 17.4 25.4856 17.0587 25.2083 16.632C24.9416 16.2053 24.8083 15.72 24.8083 15.176C24.8083 13.0853 26.0136 12.04 28.4243 12.04C29.1816 12.04 29.8269 12.2053 30.3603 12.536C30.6376 12.2907 30.9309 12.0987 31.2403 11.96C31.5603 11.8107 31.8589 11.736 32.1363 11.736ZM28.2163 17.304C29.0909 17.304 29.7309 17.128 30.1363 16.776C30.5416 16.4133 30.7443 15.8373 30.7443 15.048C30.7443 14.2693 30.5363 13.6933 30.1203 13.32C29.7149 12.9467 29.0803 12.76 28.2163 12.76C26.5416 12.76 25.7043 13.5227 25.7043 15.048C25.7043 15.7733 25.9176 16.3333 26.3443 16.728C26.7816 17.112 27.4056 17.304 28.2163 17.304ZM31.4803 21.832C31.4803 21.2987 31.2349 20.9147 30.7443 20.68C30.2643 20.4453 29.4643 20.328 28.3443 20.328C27.3203 20.328 26.5683 20.4507 26.0883 20.696C25.6083 20.9307 25.3683 21.3093 25.3683 21.832C25.3683 22.3973 25.6029 22.8133 26.0723 23.08C26.5523 23.3467 27.2883 23.48 28.2803 23.48C29.3896 23.48 30.2003 23.3467 30.7123 23.08C31.2243 22.824 31.4803 22.408 31.4803 21.832ZM37.3996 21.16C36.1623 21.16 35.229 20.776 34.5996 20.008C33.9703 19.24 33.6556 18.0987 33.6556 16.584C33.6556 13.5547 34.9036 12.04 37.3996 12.04C39.8956 12.04 41.1436 13.5547 41.1436 16.584C41.1436 18.0987 40.829 19.24 40.1996 20.008C39.5703 20.776 38.637 21.16 37.3996 21.16ZM37.3996 20.408C38.3703 20.408 39.085 20.0987 39.5436 19.48C40.013 18.8507 40.2476 17.8853 40.2476 16.584C40.2476 15.2827 40.013 14.3227 39.5436 13.704C39.085 13.0853 38.3703 12.776 37.3996 12.776C36.429 12.776 35.709 13.0853 35.2396 13.704C34.781 14.3227 34.5516 15.2827 34.5516 16.584C34.5516 17.8853 34.781 18.8507 35.2396 19.48C35.709 20.0987 36.429 20.408 37.3996 20.408ZM47.2533 20.088C47.4026 20.1733 47.4773 20.312 47.4773 20.504C47.4773 20.6853 47.4026 20.8187 47.2533 20.904C46.9226 21.0747 46.4533 21.16 45.8453 21.16C45.1839 21.16 44.6506 20.9627 44.2453 20.568C43.8399 20.1627 43.6373 19.6347 43.6373 18.984V12.92H41.9733V12.2H43.6373V9.8H44.5173V12.2H47.0293V12.92H44.5173V18.808C44.5173 19.3307 44.6346 19.7253 44.8693 19.992C45.1039 20.2587 45.4399 20.392 45.8773 20.392C46.3679 20.392 46.8266 20.2907 47.2533 20.088ZM57.0586 12.04C58.2853 12.04 59.2186 12.4293 59.8586 13.208C60.4986 13.976 60.8186 15.1013 60.8186 16.584C60.8186 17.5227 60.6586 18.3387 60.3386 19.032C60.0186 19.7147 59.5546 20.2427 58.9466 20.616C58.3493 20.9787 57.64 21.16 56.8186 21.16C55.8693 21.16 55.0106 20.968 54.2426 20.584V24.52H53.3626V14.792C53.3626 14.0133 53.3466 13.448 53.3146 13.096C53.2933 12.744 53.2453 12.4933 53.1706 12.344C53.3946 12.2053 53.608 12.136 53.8106 12.136C54.0986 12.136 54.2426 12.4507 54.2426 13.08V13.176C54.616 12.8133 55.048 12.536 55.5386 12.344C56.0293 12.1413 56.536 12.04 57.0586 12.04ZM56.8186 20.424C57.7786 20.424 58.5306 20.0827 59.0746 19.4C59.6293 18.7173 59.9066 17.7787 59.9066 16.584C59.9066 15.336 59.6666 14.392 59.1866 13.752C58.7066 13.1013 57.9973 12.776 57.0586 12.776C56.5466 12.776 56.0453 12.8933 55.5546 13.128C55.064 13.3627 54.6266 13.6987 54.2426 14.136V19.784C54.6053 19.9867 55.0053 20.1467 55.4426 20.264C55.8906 20.3707 56.3493 20.424 56.8186 20.424ZM69.0691 18.888C69.0691 19.3787 69.1065 19.7627 69.1811 20.04C69.2665 20.3067 69.4105 20.536 69.6131 20.728C69.5598 20.824 69.4745 20.9093 69.3571 20.984C69.2398 21.048 69.1278 21.08 69.0211 21.08C68.7971 21.08 68.6105 20.9413 68.4611 20.664C68.3225 20.376 68.2371 19.9973 68.2051 19.528C67.8425 20.0293 67.3625 20.4293 66.7651 20.728C66.1678 21.016 65.5331 21.16 64.8611 21.16C64.0931 21.16 63.4638 20.9467 62.9731 20.52C62.4931 20.0827 62.2531 19.5227 62.2531 18.84C62.2531 17.848 62.7545 17.0747 63.7571 16.52C64.7598 15.9547 66.2371 15.6293 68.1891 15.544V15.032C68.1891 13.528 67.4265 12.776 65.9011 12.776C65.3678 12.776 64.8718 12.8773 64.4131 13.08C63.9651 13.2827 63.5225 13.608 63.0851 14.056C63.0318 14.1093 62.9571 14.136 62.8611 14.136C62.7651 14.136 62.6638 14.0987 62.5571 14.024C62.4505 13.9493 62.3545 13.8427 62.2691 13.704C62.7278 13.1707 63.2771 12.76 63.9171 12.472C64.5571 12.184 65.2345 12.04 65.9491 12.04C66.9305 12.04 67.6931 12.3067 68.2371 12.84C68.7918 13.3627 69.0691 14.0933 69.0691 15.032V18.888ZM64.9411 20.424C65.5598 20.424 66.1518 20.2533 66.7171 19.912C67.2825 19.56 67.7731 19.0693 68.1891 18.44V16.28C66.4931 16.3547 65.2291 16.6 64.3971 17.016C63.5651 17.432 63.1491 18.0347 63.1491 18.824C63.1491 19.3253 63.3091 19.72 63.6291 20.008C63.9491 20.2853 64.3865 20.424 64.9411 20.424ZM74.263 21.16C73.719 21.16 73.1963 21.08 72.695 20.92C72.1937 20.7493 71.7883 20.5307 71.479 20.264C71.1697 19.9973 71.015 19.72 71.015 19.432C71.015 19.304 71.0523 19.192 71.127 19.096C71.2123 19 71.3137 18.9413 71.431 18.92C71.751 19.4213 72.1297 19.8 72.567 20.056C73.015 20.3013 73.6017 20.424 74.327 20.424C75.0417 20.424 75.6017 20.264 76.007 19.944C76.4123 19.624 76.615 19.1813 76.615 18.616C76.615 18.2533 76.503 17.96 76.279 17.736C76.0657 17.512 75.7937 17.3413 75.463 17.224C75.143 17.096 74.7057 16.9627 74.151 16.824C73.5217 16.664 73.0097 16.5093 72.615 16.36C72.231 16.2107 71.9003 15.9813 71.623 15.672C71.3563 15.352 71.223 14.936 71.223 14.424C71.223 13.8907 71.367 13.448 71.655 13.096C71.943 12.7333 72.311 12.4667 72.759 12.296C73.207 12.1253 73.6817 12.04 74.183 12.04C74.8657 12.04 75.463 12.184 75.975 12.472C76.4977 12.7493 76.9243 13.1547 77.255 13.688C77.1377 13.8053 77.0363 13.8907 76.951 13.944C76.8763 13.9867 76.7963 14.008 76.711 14.008C76.583 14.008 76.4603 13.9333 76.343 13.784C76.0657 13.4427 75.7563 13.1867 75.415 13.016C75.0843 12.8453 74.6683 12.76 74.167 12.76C73.559 12.76 73.063 12.8933 72.679 13.16C72.295 13.4267 72.103 13.832 72.103 14.376C72.103 14.7173 72.2097 15 72.423 15.224C72.6363 15.4373 72.8977 15.6027 73.207 15.72C73.527 15.8373 73.9537 15.96 74.487 16.088C75.1377 16.2587 75.6603 16.424 76.055 16.584C76.4603 16.744 76.8017 16.9893 77.079 17.32C77.3563 17.64 77.495 18.072 77.495 18.616C77.495 19.3947 77.2017 20.0133 76.615 20.472C76.039 20.9307 75.255 21.16 74.263 21.16ZM82.0286 21.16C81.4846 21.16 80.962 21.08 80.4606 20.92C79.9593 20.7493 79.554 20.5307 79.2446 20.264C78.9353 19.9973 78.7806 19.72 78.7806 19.432C78.7806 19.304 78.818 19.192 78.8926 19.096C78.978 19 79.0793 18.9413 79.1966 18.92C79.5166 19.4213 79.8953 19.8 80.3326 20.056C80.7806 20.3013 81.3673 20.424 82.0926 20.424C82.8073 20.424 83.3673 20.264 83.7726 19.944C84.178 19.624 84.3806 19.1813 84.3806 18.616C84.3806 18.2533 84.2686 17.96 84.0446 17.736C83.8313 17.512 83.5593 17.3413 83.2286 17.224C82.9086 17.096 82.4713 16.9627 81.9166 16.824C81.2873 16.664 80.7753 16.5093 80.3806 16.36C79.9966 16.2107 79.666 15.9813 79.3886 15.672C79.122 15.352 78.9886 14.936 78.9886 14.424C78.9886 13.8907 79.1326 13.448 79.4206 13.096C79.7086 12.7333 80.0766 12.4667 80.5246 12.296C80.9726 12.1253 81.4473 12.04 81.9486 12.04C82.6313 12.04 83.2286 12.184 83.7406 12.472C84.2633 12.7493 84.69 13.1547 85.0206 13.688C84.9033 13.8053 84.802 13.8907 84.7166 13.944C84.642 13.9867 84.562 14.008 84.4766 14.008C84.3486 14.008 84.226 13.9333 84.1086 13.784C83.8313 13.4427 83.522 13.1867 83.1806 13.016C82.85 12.8453 82.434 12.76 81.9326 12.76C81.3246 12.76 80.8286 12.8933 80.4446 13.16C80.0606 13.4267 79.8686 13.832 79.8686 14.376C79.8686 14.7173 79.9753 15 80.1886 15.224C80.402 15.4373 80.6633 15.6027 80.9726 15.72C81.2926 15.8373 81.7193 15.96 82.2526 16.088C82.9033 16.2587 83.426 16.424 83.8206 16.584C84.226 16.744 84.5673 16.9893 84.8446 17.32C85.122 17.64 85.2606 18.072 85.2606 18.616C85.2606 19.3947 84.9673 20.0133 84.3806 20.472C83.8046 20.9307 83.0206 21.16 82.0286 21.16ZM97.4903 12.2C97.0529 15.3253 96.1943 18.2587 94.9143 21H94.1623C93.5969 19.784 93.1329 18.632 92.7703 17.544C92.4183 16.456 92.1463 15.352 91.9543 14.232C91.7623 15.3627 91.4903 16.472 91.1383 17.56C90.7969 18.648 90.3543 19.7947 89.8103 21H89.0263C88.3863 19.6667 87.8529 18.2853 87.4263 16.856C87.0103 15.4267 86.6796 13.8747 86.4342 12.2H87.3463C87.5169 13.5973 87.7729 14.9147 88.1143 16.152C88.4556 17.3893 88.9036 18.6053 89.4583 19.8C90.4609 17.6027 91.1596 15.0693 91.5543 12.2H92.3863C92.8236 15.144 93.5489 17.688 94.5623 19.832C95.6503 17.336 96.3116 14.792 96.5463 12.2H97.4903ZM102.447 21.16C101.209 21.16 100.276 20.776 99.6465 20.008C99.0172 19.24 98.7025 18.0987 98.7025 16.584C98.7025 13.5547 99.9505 12.04 102.447 12.04C104.943 12.04 106.191 13.5547 106.191 16.584C106.191 18.0987 105.876 19.24 105.247 20.008C104.617 20.776 103.684 21.16 102.447 21.16ZM102.447 20.408C103.417 20.408 104.132 20.0987 104.591 19.48C105.06 18.8507 105.295 17.8853 105.295 16.584C105.295 15.2827 105.06 14.3227 104.591 13.704C104.132 13.0853 103.417 12.776 102.447 12.776C101.476 12.776 100.756 13.0853 100.287 13.704C99.8278 14.3227 99.5985 15.2827 99.5985 16.584C99.5985 17.8853 99.8278 18.8507 100.287 19.48C100.756 20.0987 101.476 20.408 102.447 20.408ZM111.708 12.088C112.071 12.088 112.353 12.1467 112.556 12.264C112.769 12.3707 112.876 12.5253 112.876 12.728C112.876 12.9093 112.817 13.0427 112.7 13.128C112.455 12.9787 112.097 12.904 111.628 12.904C111.137 12.904 110.695 13.0427 110.3 13.32C109.916 13.5973 109.612 13.9813 109.388 14.472C109.175 14.952 109.068 15.5013 109.068 16.12V21H108.188V12.2H109.068V13.848C109.335 13.336 109.708 12.9147 110.188 12.584C110.668 12.2533 111.175 12.088 111.708 12.088ZM121.346 18.952C121.346 19.8053 121.421 20.4453 121.57 20.872C121.368 21 121.181 21.064 121.01 21.064C120.722 21.064 120.546 20.7013 120.482 19.976C119.821 20.7653 118.888 21.16 117.682 21.16C116.52 21.16 115.608 20.76 114.946 19.96C114.285 19.1493 113.954 18.04 113.954 16.632C113.954 15.192 114.301 14.0667 114.994 13.256C115.698 12.4453 116.669 12.04 117.906 12.04C118.354 12.04 118.813 12.1147 119.282 12.264C119.752 12.4133 120.146 12.6107 120.466 12.856V8.344H121.346V18.952ZM117.762 20.408C118.882 20.408 119.784 19.96 120.466 19.064V13.736C120.125 13.4267 119.73 13.1867 119.282 13.016C118.834 12.8453 118.376 12.76 117.906 12.76C116.946 12.76 116.194 13.1013 115.65 13.784C115.117 14.4667 114.85 15.416 114.85 16.632C114.85 17.8267 115.106 18.7547 115.618 19.416C116.13 20.0773 116.845 20.408 117.762 20.408ZM125.885 17.336C125.885 16.8347 126.013 16.4133 126.269 16.072C126.536 15.72 126.93 15.32 127.453 14.872C127.805 14.5733 128.077 14.3227 128.269 14.12C128.472 13.9173 128.642 13.6827 128.781 13.416C128.92 13.1493 128.989 12.8507 128.989 12.52C128.989 11.88 128.781 11.3733 128.365 11C127.949 10.6267 127.373 10.44 126.637 10.44C125.4 10.44 124.557 11.112 124.109 12.456L123.325 12.072C123.517 11.3573 123.912 10.776 124.509 10.328C125.117 9.88 125.837 9.656 126.669 9.656C127.586 9.656 128.344 9.912 128.941 10.424C129.549 10.9253 129.853 11.6293 129.853 12.536C129.853 12.9627 129.773 13.3413 129.613 13.672C129.464 14.0027 129.277 14.2853 129.053 14.52C128.829 14.744 128.53 15.0107 128.157 15.32C127.666 15.7253 127.298 16.088 127.053 16.408C126.818 16.7173 126.701 17.1013 126.701 17.56V17.976H125.885V17.336ZM126.269 21C125.864 21 125.661 20.7973 125.661 20.392V20.264C125.661 19.8587 125.864 19.656 126.269 19.656H126.381C126.776 19.656 126.973 19.8587 126.973 20.264V20.392C126.973 20.7973 126.776 21 126.381 21H126.269Z" fill="white"/>
</svg>
