<svg width="195" height="69" viewBox="0 0 195 69" fill="none" xmlns="http://www.w3.org/2000/svg">
<path d="M5.184 51V17.808H11.76V45.672H26.4L25.704 51H5.184ZM43.2053 24.864C45.7333 24.864 47.8773 25.416 49.6373 26.52C51.3973 27.624 52.7333 29.184 53.6453 31.2C54.5733 33.2 55.0373 35.544 55.0373 38.232C55.0373 40.984 54.5733 43.368 53.6453 45.384C52.7173 47.4 51.3733 48.96 49.6133 50.064C47.8533 51.168 45.7093 51.72 43.1813 51.72C40.6693 51.72 38.5253 51.184 36.7493 50.112C34.9893 49.024 33.6453 47.48 32.7173 45.48C31.7893 43.464 31.3253 41.064 31.3253 38.28C31.3253 35.624 31.7893 33.288 32.7173 31.272C33.6453 29.256 34.9973 27.688 36.7733 26.568C38.5493 25.432 40.6933 24.864 43.2053 24.864ZM43.2053 29.64C41.4293 29.64 40.1013 30.336 39.2213 31.728C38.3573 33.12 37.9253 35.304 37.9253 38.28C37.9253 41.288 38.3573 43.488 39.2213 44.88C40.0853 46.256 41.4053 46.944 43.1813 46.944C44.9573 46.944 46.2773 46.256 47.1413 44.88C48.0053 43.488 48.4373 41.272 48.4373 38.232C48.4373 35.272 48.0053 33.104 47.1413 31.728C46.2773 30.336 44.9653 29.64 43.2053 29.64ZM83.3385 22.008L84.9225 26.952C83.9625 27.288 82.8825 27.528 81.6825 27.672C80.4825 27.8 79.1065 27.864 77.5545 27.864C79.1065 28.536 80.2825 29.392 81.0825 30.432C81.8985 31.456 82.3065 32.76 82.3065 34.344C82.3065 35.992 81.8825 37.464 81.0345 38.76C80.2025 40.056 79.0105 41.072 77.4585 41.808C75.9225 42.544 74.0905 42.912 71.9625 42.912C71.3065 42.912 70.7225 42.88 70.2105 42.816C69.6985 42.752 69.2025 42.664 68.7225 42.552C68.4025 42.728 68.1545 42.984 67.9785 43.32C67.8025 43.656 67.7145 44 67.7145 44.352C67.7145 44.832 67.8985 45.248 68.2665 45.6C68.6505 45.936 69.4665 46.104 70.7145 46.104H75.0345C76.9065 46.104 78.5465 46.424 79.9545 47.064C81.3785 47.688 82.4825 48.536 83.2665 49.608C84.0665 50.68 84.4665 51.912 84.4665 53.304C84.4665 55.864 83.3545 57.864 81.1305 59.304C78.9065 60.744 75.6585 61.464 71.3865 61.464C68.3305 61.464 65.9465 61.152 64.2345 60.528C62.5385 59.904 61.3465 58.992 60.6585 57.792C59.9705 56.608 59.6265 55.176 59.6265 53.496H65.2665C65.2665 54.312 65.4265 54.984 65.7465 55.512C66.0825 56.04 66.6985 56.432 67.5945 56.688C68.5065 56.944 69.8105 57.072 71.5065 57.072C73.2025 57.072 74.5305 56.936 75.4905 56.664C76.4665 56.392 77.1545 56 77.5545 55.488C77.9545 54.992 78.1545 54.408 78.1545 53.736C78.1545 52.824 77.7705 52.112 77.0025 51.6C76.2345 51.088 75.1465 50.832 73.7385 50.832H69.5385C66.9785 50.832 65.1145 50.336 63.9465 49.344C62.7785 48.336 62.1945 47.176 62.1945 45.864C62.1945 44.968 62.4345 44.112 62.9145 43.296C63.4105 42.464 64.1145 41.76 65.0265 41.184C63.4585 40.352 62.3225 39.36 61.6185 38.208C60.9305 37.04 60.5865 35.632 60.5865 33.984C60.5865 32.144 61.0505 30.544 61.9785 29.184C62.9065 27.824 64.1945 26.768 65.8425 26.016C67.4905 25.264 69.3865 24.888 71.5305 24.888C73.4985 24.904 75.1705 24.784 76.5465 24.528C77.9385 24.272 79.1625 23.92 80.2185 23.472C81.2905 23.024 82.3305 22.536 83.3385 22.008ZM71.6505 29.112C70.1465 29.112 68.9945 29.552 68.1945 30.432C67.4105 31.312 67.0185 32.48 67.0185 33.936C67.0185 35.44 67.4265 36.632 68.2425 37.512C69.0585 38.392 70.2025 38.832 71.6745 38.832C73.1305 38.832 74.2345 38.408 74.9865 37.56C75.7545 36.696 76.1385 35.464 76.1385 33.864C76.1385 32.264 75.7545 31.072 74.9865 30.288C74.2345 29.504 73.1225 29.112 71.6505 29.112ZM139.845 17.808V22.728H132.813V46.08H139.845V51H119.205V46.08H126.237V22.728H119.205V17.808H139.845ZM147.77 51V25.584H153.29L153.746 28.728C154.834 27.448 156.058 26.488 157.418 25.848C158.778 25.192 160.242 24.864 161.81 24.864C164.098 24.864 165.842 25.528 167.042 26.856C168.242 28.168 168.842 30.016 168.842 32.4V51H162.506V34.872C162.506 33.592 162.426 32.568 162.266 31.8C162.106 31.016 161.802 30.456 161.354 30.12C160.906 29.768 160.258 29.592 159.41 29.592C158.722 29.592 158.058 29.744 157.418 30.048C156.794 30.352 156.202 30.76 155.642 31.272C155.098 31.784 154.586 32.352 154.106 32.976V51H147.77Z" fill="#C8DEF8"/>
</svg>
