<svg width="332" height="161" viewBox="0 0 332 161" fill="none" xmlns="http://www.w3.org/2000/svg">
<path d="M50.702 38V36.784L52.654 36.528C53.0593 36.4853 53.326 36.3573 53.454 36.144C53.582 35.9093 53.646 35.4933 53.646 34.896V18.288C53.646 17.7333 53.5713 17.36 53.422 17.168C53.294 16.9547 53.0167 16.8267 52.59 16.784L50.702 16.56V15.344H59.758V16.56L57.774 16.784C57.4113 16.8267 57.1553 16.9653 57.006 17.2C56.878 17.4133 56.814 17.8187 56.814 18.416V35.024C56.814 35.5573 56.878 35.9307 57.006 36.144C57.1553 36.3573 57.4327 36.4853 57.838 36.528L59.758 36.784V38H50.702ZM63.7668 38.448L63.2868 32.88L64.7268 32.784C65.0254 33.7227 65.3988 34.5013 65.8468 35.12C66.2948 35.7173 66.8174 36.1653 67.4148 36.464C68.0121 36.7413 68.6734 36.88 69.3988 36.88C70.3801 36.88 71.1481 36.624 71.7028 36.112C72.2788 35.5787 72.5668 34.864 72.5668 33.968C72.5668 33.4347 72.4388 32.9973 72.1828 32.656C71.9268 32.2933 71.5108 31.984 70.9348 31.728C70.3801 31.472 69.6334 31.216 68.6948 30.96C67.8841 30.7467 67.1588 30.5013 66.5188 30.224C65.8788 29.9253 65.3454 29.5947 64.9188 29.232C64.4921 28.848 64.1721 28.4107 63.9588 27.92C63.7454 27.408 63.6388 26.8 63.6388 26.096C63.6388 25.136 63.8521 24.2933 64.2788 23.568C64.7268 22.8427 65.3561 22.2773 66.1668 21.872C66.9988 21.4667 67.9694 21.264 69.0788 21.264C69.8254 21.264 70.5188 21.3813 71.1588 21.616C71.8201 21.8507 72.3428 22.1173 72.7268 22.416L73.0468 21.264H74.1348L74.5508 26.448L73.0788 26.32C72.8228 25.2107 72.3428 24.336 71.6388 23.696C70.9561 23.0347 70.1241 22.704 69.1428 22.704C68.2041 22.704 67.4681 22.9173 66.9348 23.344C66.4014 23.7707 66.1348 24.3893 66.1348 25.2C66.1348 25.7333 66.2628 26.1813 66.5188 26.544C66.7748 26.8853 67.1801 27.184 67.7348 27.44C68.3108 27.6747 69.0361 27.92 69.9108 28.176C70.7854 28.4107 71.5428 28.6773 72.1828 28.976C72.8228 29.2747 73.3561 29.616 73.7828 30C74.2308 30.384 74.5614 30.832 74.7748 31.344C74.9881 31.856 75.0948 32.464 75.0948 33.168C75.0948 34.2133 74.8494 35.1413 74.3588 35.952C73.8681 36.7413 73.1961 37.36 72.3428 37.808C71.4894 38.2347 70.4868 38.448 69.3348 38.448C68.5028 38.448 67.7348 38.3413 67.0308 38.128C66.3268 37.936 65.7188 37.648 65.2068 37.264L64.8548 38.448H63.7668ZM82.3323 38.448C80.9669 38.448 79.8789 38.064 79.0683 37.296C78.2576 36.5067 77.8523 35.4507 77.8523 34.128C77.8523 32.976 78.1403 32.048 78.7163 31.344C79.2923 30.6187 80.2416 30.0747 81.5643 29.712C82.9083 29.328 84.7109 29.0827 86.9723 28.976V26.32C86.9723 25.4453 86.8549 24.7413 86.6203 24.208C86.3856 23.6533 86.0229 23.248 85.5323 22.992C85.0416 22.7147 84.3909 22.576 83.5803 22.576C82.9616 22.576 82.3536 22.672 81.7563 22.864C81.1589 23.056 80.7216 23.3013 80.4443 23.6C80.6789 23.9627 80.8709 24.272 81.0203 24.528C81.1696 24.784 81.2763 25.008 81.3403 25.2C81.4256 25.3707 81.4683 25.52 81.4683 25.648C81.4683 26.032 81.2976 26.3627 80.9563 26.64C80.6363 26.9173 80.2203 27.056 79.7083 27.056C79.1323 27.056 78.6843 26.9173 78.3643 26.64C78.0656 26.3413 77.9163 25.9253 77.9163 25.392C77.9163 24.6667 78.1936 23.9947 78.7483 23.376C79.3243 22.736 80.0709 22.224 80.9883 21.84C81.9056 21.456 82.9083 21.264 83.9963 21.264C85.3403 21.264 86.4496 21.4773 87.3243 21.904C88.1989 22.3093 88.8496 22.9387 89.2763 23.792C89.7243 24.6453 89.9483 25.7227 89.9483 27.024V34.992C89.9483 35.504 90.0763 35.8773 90.3323 36.112C90.5883 36.3467 90.9403 36.464 91.3883 36.464C91.6229 36.464 91.8576 36.4427 92.0923 36.4C92.3483 36.3573 92.6256 36.2827 92.9243 36.176L93.2123 37.104C92.7856 37.5307 92.2949 37.8613 91.7403 38.096C91.2069 38.3307 90.7056 38.448 90.2363 38.448C89.2976 38.448 88.5829 38.2027 88.0923 37.712C87.6016 37.2213 87.3029 36.4853 87.1963 35.504C86.8123 36.1867 86.3749 36.752 85.8843 37.2C85.4149 37.6267 84.8816 37.936 84.2843 38.128C83.7083 38.3413 83.0576 38.448 82.3323 38.448ZM83.5803 36.496C84.2203 36.496 84.7963 36.3467 85.3083 36.048C85.8203 35.7493 86.2256 35.344 86.5243 34.832C86.8229 34.2987 86.9723 33.7013 86.9723 33.04V30.32C85.5856 30.32 84.4443 30.4373 83.5483 30.672C82.6523 30.9067 81.9909 31.28 81.5643 31.792C81.1589 32.304 80.9563 32.9653 80.9563 33.776C80.9563 34.6293 81.1909 35.3013 81.6603 35.792C82.1296 36.2613 82.7696 36.496 83.5803 36.496ZM99.4885 38.448C98.1232 38.448 97.0352 38.064 96.2245 37.296C95.4138 36.5067 95.0085 35.4507 95.0085 34.128C95.0085 32.976 95.2965 32.048 95.8725 31.344C96.4485 30.6187 97.3978 30.0747 98.7205 29.712C100.065 29.328 101.867 29.0827 104.129 28.976V26.32C104.129 25.4453 104.011 24.7413 103.777 24.208C103.542 23.6533 103.179 23.248 102.689 22.992C102.198 22.7147 101.547 22.576 100.737 22.576C100.118 22.576 99.5098 22.672 98.9125 22.864C98.3152 23.056 97.8778 23.3013 97.6005 23.6C97.8352 23.9627 98.0272 24.272 98.1765 24.528C98.3258 24.784 98.4325 25.008 98.4965 25.2C98.5818 25.3707 98.6245 25.52 98.6245 25.648C98.6245 26.032 98.4538 26.3627 98.1125 26.64C97.7925 26.9173 97.3765 27.056 96.8645 27.056C96.2885 27.056 95.8405 26.9173 95.5205 26.64C95.2218 26.3413 95.0725 25.9253 95.0725 25.392C95.0725 24.6667 95.3498 23.9947 95.9045 23.376C96.4805 22.736 97.2272 22.224 98.1445 21.84C99.0618 21.456 100.065 21.264 101.153 21.264C102.497 21.264 103.606 21.4773 104.481 21.904C105.355 22.3093 106.006 22.9387 106.433 23.792C106.881 24.6453 107.105 25.7227 107.105 27.024V34.992C107.105 35.504 107.233 35.8773 107.489 36.112C107.745 36.3467 108.097 36.464 108.545 36.464C108.779 36.464 109.014 36.4427 109.249 36.4C109.505 36.3573 109.782 36.2827 110.081 36.176L110.369 37.104C109.942 37.5307 109.451 37.8613 108.897 38.096C108.363 38.3307 107.862 38.448 107.393 38.448C106.454 38.448 105.739 38.2027 105.249 37.712C104.758 37.2213 104.459 36.4853 104.353 35.504C103.969 36.1867 103.531 36.752 103.041 37.2C102.571 37.6267 102.038 37.936 101.441 38.128C100.865 38.3413 100.214 38.448 99.4885 38.448ZM100.737 36.496C101.377 36.496 101.953 36.3467 102.465 36.048C102.977 35.7493 103.382 35.344 103.681 34.832C103.979 34.2987 104.129 33.7013 104.129 33.04V30.32C102.742 30.32 101.601 30.4373 100.705 30.672C99.8085 30.9067 99.1472 31.28 98.7205 31.792C98.3152 32.304 98.1125 32.9653 98.1125 33.776C98.1125 34.6293 98.3472 35.3013 98.8165 35.792C99.2858 36.2613 99.9258 36.496 100.737 36.496ZM119.177 38.448C117.684 38.448 116.383 38.1173 115.273 37.456C114.164 36.7733 113.3 35.8133 112.681 34.576C112.084 33.3173 111.785 31.824 111.785 30.096C111.785 28.304 112.105 26.7467 112.745 25.424C113.407 24.1013 114.324 23.0773 115.497 22.352C116.671 21.6267 118.025 21.264 119.561 21.264C120.628 21.264 121.577 21.4453 122.409 21.808C123.263 22.1707 123.935 22.6613 124.425 23.28C124.916 23.8987 125.161 24.592 125.161 25.36C125.161 25.7867 125.076 26.16 124.905 26.48C124.756 26.7787 124.521 27.0133 124.201 27.184C123.903 27.3547 123.54 27.44 123.113 27.44C122.516 27.44 122.057 27.3013 121.737 27.024C121.417 26.7253 121.257 26.3413 121.257 25.872C121.257 25.616 121.332 25.3173 121.481 24.976C121.652 24.6133 121.919 24.1333 122.281 23.536C121.876 23.2373 121.449 23.024 121.001 22.896C120.575 22.768 120.031 22.704 119.369 22.704C118.537 22.704 117.791 22.9707 117.129 23.504C116.468 24.0373 115.945 24.7947 115.561 25.776C115.177 26.7573 114.985 27.9413 114.985 29.328C114.985 31.4613 115.433 33.1253 116.329 34.32C117.247 35.4933 118.495 36.08 120.073 36.08C120.948 36.08 121.748 35.92 122.473 35.6C123.199 35.28 123.828 34.8533 124.361 34.32L125.225 35.184C124.521 36.208 123.647 37.008 122.601 37.584C121.577 38.16 120.436 38.448 119.177 38.448ZM134.577 38V36.784L136.433 36.56C136.817 36.496 137.073 36.3573 137.201 36.144C137.329 35.9093 137.393 35.504 137.393 34.928V18.288C137.393 17.7547 137.329 17.3813 137.201 17.168C137.073 16.9547 136.796 16.8267 136.369 16.784L134.577 16.56V15.344H141.361L152.209 34V33.808V18.288C152.209 17.7547 152.145 17.3813 152.017 17.168C151.889 16.9547 151.601 16.8267 151.153 16.784L149.393 16.56V15.344H156.817V16.56L154.993 16.784C154.588 16.8267 154.321 16.9653 154.193 17.2C154.065 17.4133 154.001 17.8187 154.001 18.416V38H151.057L139.217 18.096V18.288V35.056C139.217 35.5893 139.281 35.9627 139.409 36.176C139.537 36.368 139.814 36.496 140.241 36.56L142.033 36.784V38H134.577ZM166.336 38.448C164.821 38.448 163.498 38.1173 162.368 37.456C161.258 36.7733 160.394 35.8133 159.776 34.576C159.157 33.3173 158.848 31.8347 158.848 30.128C158.848 28.2933 159.168 26.7147 159.808 25.392C160.448 24.0693 161.354 23.056 162.528 22.352C163.701 21.6267 165.056 21.264 166.592 21.264C167.765 21.264 168.789 21.4987 169.664 21.968C170.56 22.4373 171.242 23.1093 171.712 23.984C172.202 24.8373 172.448 25.8293 172.448 26.96C172.448 27.3653 172.416 27.8027 172.352 28.272C172.309 28.7413 172.224 29.2213 172.096 29.712H162.048C162.069 31.12 162.282 32.304 162.688 33.264C163.114 34.224 163.712 34.9493 164.48 35.44C165.248 35.9093 166.144 36.144 167.168 36.144C168 36.144 168.8 35.984 169.568 35.664C170.357 35.3227 171.082 34.8213 171.744 34.16L172.64 35.024C171.893 36.1547 170.965 37.008 169.856 37.584C168.746 38.16 167.573 38.448 166.336 38.448ZM162.048 28.304H169.344C169.386 28.0907 169.408 27.8667 169.408 27.632C169.429 27.376 169.44 27.1093 169.44 26.832C169.44 25.3813 169.173 24.3253 168.64 23.664C168.106 22.9813 167.317 22.64 166.272 22.64C165.461 22.64 164.757 22.8427 164.16 23.248C163.584 23.6533 163.114 24.272 162.752 25.104C162.389 25.936 162.154 27.0027 162.048 28.304ZM180.251 38L176.155 24.848C176.049 24.464 175.942 24.1653 175.835 23.952C175.729 23.7387 175.59 23.5787 175.419 23.472C175.27 23.344 175.046 23.248 174.747 23.184L173.691 22.96L173.947 21.712H181.403V22.896L179.899 23.088C179.515 23.1307 179.281 23.248 179.195 23.44C179.11 23.632 179.153 24.048 179.323 24.688L182.267 35.312H182.427L186.203 21.712H189.051L192.859 35.28H192.987L195.931 24.944C196.102 24.3467 196.134 23.9307 196.027 23.696C195.921 23.44 195.643 23.2587 195.195 23.152L193.883 22.864L194.107 21.712H200.283V22.896L199.099 23.152C198.694 23.2373 198.395 23.3973 198.203 23.632C198.011 23.8453 197.819 24.272 197.627 24.912L193.691 38H190.747L187.067 24.944H186.939L183.323 38H180.251ZM208.151 38.448C207.234 38.448 206.466 38.288 205.847 37.968C205.228 37.6267 204.759 37.104 204.439 36.4C204.14 35.696 203.991 34.8 203.991 33.712V23.312H201.527V22.032C202.295 21.968 202.914 21.7547 203.383 21.392C203.874 21.008 204.258 20.4213 204.535 19.632C204.812 18.8427 204.994 17.8187 205.079 16.56L206.615 16.336L206.967 16.528V21.712H211.895V23.312H206.967V33.488C206.967 34.4053 207.148 35.0987 207.511 35.568C207.874 36.016 208.439 36.24 209.207 36.24C209.762 36.24 210.284 36.1547 210.775 35.984C211.287 35.792 211.788 35.504 212.279 35.12L212.887 36.016C212.226 36.784 211.49 37.3813 210.679 37.808C209.89 38.2347 209.047 38.448 208.151 38.448ZM222.154 38.448C220.596 38.448 219.231 38.1173 218.058 37.456C216.906 36.7733 216.01 35.824 215.37 34.608C214.751 33.3707 214.442 31.9093 214.442 30.224C214.442 28.3893 214.772 26.8 215.434 25.456C216.095 24.112 217.034 23.0773 218.25 22.352C219.487 21.6267 220.938 21.264 222.602 21.264C224.138 21.264 225.471 21.6053 226.602 22.288C227.732 22.9493 228.607 23.888 229.226 25.104C229.844 26.32 230.154 27.76 230.154 29.424C230.154 31.2587 229.823 32.8587 229.162 34.224C228.5 35.568 227.572 36.6133 226.378 37.36C225.183 38.0853 223.775 38.448 222.154 38.448ZM222.634 36.848C223.551 36.848 224.319 36.6027 224.938 36.112C225.578 35.6213 226.058 34.8853 226.378 33.904C226.719 32.9013 226.89 31.664 226.89 30.192C226.89 28.9973 226.772 27.9413 226.538 27.024C226.324 26.1067 226.004 25.3387 225.578 24.72C225.172 24.08 224.671 23.6 224.074 23.28C223.476 22.96 222.804 22.8 222.058 22.8C221.119 22.8 220.319 23.0347 219.658 23.504C219.018 23.9733 218.527 24.688 218.186 25.648C217.844 26.608 217.674 27.8133 217.674 29.264C217.674 30.9067 217.876 32.2933 218.282 33.424C218.687 34.5547 219.263 35.408 220.01 35.984C220.756 36.56 221.631 36.848 222.634 36.848ZM232.977 38V36.816L234.513 36.56C234.854 36.496 235.078 36.368 235.185 36.176C235.291 35.9627 235.345 35.5787 235.345 35.024V25.232C235.345 24.464 235.281 23.952 235.153 23.696C235.025 23.44 234.726 23.2907 234.257 23.248L232.657 23.056L232.849 21.84L237.553 21.52L237.873 21.712L238.033 24.656H238.097C238.651 23.5893 239.43 22.7573 240.433 22.16C241.457 21.5627 242.534 21.264 243.665 21.264C244.774 21.264 245.713 21.4773 246.481 21.904C247.249 22.3093 247.825 22.9173 248.208 23.728C248.614 24.5387 248.817 25.5413 248.817 26.736V35.28C248.817 35.7493 248.881 36.0693 249.009 36.24C249.137 36.4107 249.403 36.528 249.809 36.592L251.312 36.816V38H243.473V36.848L244.881 36.624C245.286 36.5387 245.542 36.4107 245.649 36.24C245.777 36.0693 245.841 35.7493 245.841 35.28V27.376C245.841 26.3733 245.734 25.5733 245.521 24.976C245.329 24.3787 244.998 23.952 244.529 23.696C244.081 23.4187 243.462 23.28 242.673 23.28C241.798 23.28 241.03 23.4613 240.369 23.824C239.729 24.1867 239.227 24.7093 238.865 25.392C238.502 26.0533 238.321 26.832 238.321 27.728V35.152C238.321 35.6213 238.374 35.952 238.481 36.144C238.587 36.336 238.801 36.464 239.121 36.528L240.817 36.848V38H232.977Z" fill="white"/>
<path d="M55.448 48.72L58.456 59.216L59.8 59.392L59.72 60H55.832L55.912 59.392L57.24 59.2L56.424 56.208H52.472L51.416 59.2L52.872 59.392L52.792 60H49.224L49.304 59.392L50.568 59.2L54.296 48.816L55.448 48.72ZM52.728 55.472H56.216L54.696 49.904H54.664L52.728 55.472ZM66.3405 55.056L66.2445 55.04L65.8445 56.736C65.6632 57.4827 65.4498 58.112 65.2045 58.624C64.9698 59.136 64.6765 59.52 64.3245 59.776C63.9725 60.032 63.5405 60.16 63.0285 60.16C62.4632 60.16 62.0045 60.0053 61.6525 59.696C61.3005 59.3867 61.0445 58.9707 60.8845 58.448C60.7245 57.9253 60.6445 57.3547 60.6445 56.736C60.6445 55.7013 60.8045 54.8107 61.1245 54.064C61.4445 53.3067 61.8818 52.7253 62.4365 52.32C62.9912 51.904 63.6152 51.696 64.3085 51.696C64.6498 51.696 64.9858 51.728 65.3165 51.792C65.6578 51.856 65.9885 51.952 66.3085 52.08L66.8845 51.712L67.2365 51.856L66.9485 58.592C66.9272 59.2107 66.8578 59.7813 66.7405 60.304C66.6232 60.8373 66.4578 61.3067 66.2445 61.712C66.0312 62.128 65.7698 62.48 65.4605 62.768C65.1512 63.0667 64.7885 63.2907 64.3725 63.44C63.9672 63.6 63.5138 63.68 63.0125 63.68C62.6818 63.68 62.3725 63.648 62.0845 63.584C61.7965 63.52 61.5405 63.424 61.3165 63.296C61.1032 63.1787 60.9378 63.024 60.8205 62.832C60.7032 62.6507 60.6445 62.4427 60.6445 62.208C60.6445 61.8987 60.7245 61.6587 60.8845 61.488C61.0445 61.3173 61.2472 61.232 61.4925 61.232C61.5992 61.232 61.6952 61.248 61.7805 61.28C61.8765 61.312 61.9618 61.3547 62.0365 61.408C62.1218 61.4613 62.1965 61.5253 62.2605 61.6L62.1325 62C62.0685 62.2027 62.0525 62.3787 62.0845 62.528C62.1272 62.6773 62.2338 62.7893 62.4045 62.864C62.5752 62.9493 62.8312 62.992 63.1725 62.992C63.6738 62.992 64.1165 62.8427 64.5005 62.544C64.8952 62.256 65.2205 61.808 65.4765 61.2C65.7325 60.6027 65.9032 59.8347 65.9885 58.896L66.3405 55.056ZM63.1885 59.264C63.4658 59.264 63.7058 59.2 63.9085 59.072C64.1218 58.944 64.3138 58.736 64.4845 58.448C64.6552 58.1493 64.8258 57.7493 64.9965 57.248C65.1672 56.736 65.3538 56.1013 65.5565 55.344L66.2125 52.912C65.9992 52.7947 65.7165 52.6987 65.3645 52.624C65.0232 52.5387 64.7032 52.496 64.4045 52.496C64.0205 52.496 63.6632 52.5973 63.3325 52.8C63.0125 52.992 62.7352 53.2747 62.5005 53.648C62.2658 54.0107 62.0792 54.448 61.9405 54.96C61.8125 55.4613 61.7485 56.0213 61.7485 56.64C61.7485 57.5147 61.8658 58.1707 62.1005 58.608C62.3458 59.0453 62.7085 59.264 63.1885 59.264ZM72.6991 51.696C73.4458 51.696 73.9951 51.8827 74.3471 52.256C74.6991 52.6293 74.8751 53.104 74.8751 53.68C74.8751 54.1173 74.7898 54.4853 74.6191 54.784C74.4591 55.0827 74.2405 55.328 73.9631 55.52C73.6858 55.712 73.3871 55.8667 73.0671 55.984C72.7471 56.1013 72.4271 56.2027 72.1071 56.288L70.1391 56.752C70.1711 57.1787 70.2618 57.5947 70.4111 58C70.5605 58.4053 70.7845 58.736 71.0831 58.992C71.3925 59.248 71.7871 59.376 72.2671 59.376C72.5125 59.376 72.7471 59.344 72.9711 59.28C73.2058 59.216 73.4405 59.104 73.6751 58.944C73.9098 58.784 74.1658 58.576 74.4431 58.32L74.9071 58.8C74.7685 58.9493 74.6085 59.1093 74.4271 59.28C74.2458 59.44 74.0325 59.5947 73.7871 59.744C73.5525 59.8827 73.2911 59.9947 73.0031 60.08C72.7151 60.176 72.3951 60.224 72.0431 60.224C71.3711 60.224 70.8058 60.0533 70.3471 59.712C69.8991 59.3707 69.5631 58.912 69.3391 58.336C69.1258 57.76 69.0191 57.1147 69.0191 56.4C69.0191 55.5147 69.1738 54.72 69.4831 54.016C69.7925 53.3013 70.2191 52.736 70.7631 52.32C71.3178 51.904 71.9631 51.696 72.6991 51.696ZM73.7711 53.744C73.7711 53.5093 73.7391 53.296 73.6751 53.104C73.6111 52.9013 73.4938 52.736 73.3231 52.608C73.1631 52.48 72.9338 52.416 72.6351 52.416C72.1551 52.416 71.7285 52.5653 71.3551 52.864C70.9925 53.1627 70.7045 53.5787 70.4911 54.112C70.2885 54.6453 70.1711 55.2747 70.1391 56L72.0591 55.52C72.4218 55.4347 72.7311 55.3173 72.9871 55.168C73.2431 55.0187 73.4351 54.8267 73.5631 54.592C73.7018 54.3573 73.7711 54.0747 73.7711 53.744ZM77.0326 59.296C77.0326 59.104 77.07 58.9333 77.1446 58.784C77.23 58.624 77.3473 58.5013 77.4966 58.416C77.646 58.32 77.8166 58.272 78.0086 58.272C78.2113 58.272 78.382 58.3093 78.5206 58.384C78.67 58.4587 78.782 58.5653 78.8566 58.704C78.942 58.8427 78.9846 59.008 78.9846 59.2C78.9846 59.4027 78.9366 59.5787 78.8406 59.728C78.7553 59.8773 78.638 59.9947 78.4886 60.08C78.3393 60.1653 78.1633 60.208 77.9606 60.208C77.7793 60.208 77.6193 60.1707 77.4806 60.096C77.342 60.032 77.23 59.9307 77.1446 59.792C77.07 59.6533 77.0326 59.488 77.0326 59.296ZM77.3046 53.04C77.3046 52.848 77.342 52.6773 77.4166 52.528C77.502 52.368 77.6193 52.2453 77.7686 52.16C77.918 52.064 78.0886 52.016 78.2806 52.016C78.4833 52.016 78.654 52.0533 78.7926 52.128C78.942 52.2027 79.054 52.3093 79.1286 52.448C79.214 52.5867 79.2566 52.752 79.2566 52.944C79.2566 53.1467 79.2086 53.3227 79.1126 53.472C79.0273 53.6213 78.91 53.7387 78.7606 53.824C78.6113 53.9093 78.4353 53.952 78.2326 53.952C78.0513 53.952 77.8913 53.92 77.7526 53.856C77.614 53.7813 77.502 53.6747 77.4166 53.536C77.342 53.3973 77.3046 53.232 77.3046 53.04ZM90.5616 51.088C90.5616 51.504 90.471 51.8933 90.2896 52.256C90.1083 52.608 89.847 52.9227 89.5056 53.2C89.175 53.4667 88.775 53.6907 88.3056 53.872V53.984C88.903 54.048 89.399 54.1813 89.7936 54.384C90.199 54.5867 90.503 54.864 90.7056 55.216C90.9083 55.568 91.0096 55.9947 91.0096 56.496C91.0096 57.0187 90.8976 57.5093 90.6736 57.968C90.4496 58.4267 90.135 58.8267 89.7296 59.168C89.3243 59.4987 88.8496 59.76 88.3056 59.952C87.7616 60.1333 87.1803 60.224 86.5616 60.224C85.9963 60.224 85.511 60.1493 85.1056 60C84.7003 59.84 84.391 59.6267 84.1776 59.36C83.9643 59.0933 83.8576 58.8053 83.8576 58.496C83.8576 58.1867 83.943 57.9467 84.1136 57.776C84.295 57.5947 84.5136 57.504 84.7696 57.504C84.9296 57.504 85.0736 57.5413 85.2016 57.616C85.3403 57.6907 85.4576 57.7973 85.5536 57.936L85.3456 58.32C85.2283 58.5333 85.1963 58.7307 85.2496 58.912C85.3136 59.0933 85.4576 59.2373 85.6816 59.344C85.9163 59.44 86.2256 59.488 86.6096 59.488C87.239 59.488 87.7883 59.3653 88.2576 59.12C88.7376 58.864 89.111 58.5173 89.3776 58.08C89.6443 57.6427 89.7776 57.1413 89.7776 56.576C89.7776 55.9253 89.5696 55.4293 89.1536 55.088C88.7483 54.7467 88.135 54.576 87.3136 54.576C87.111 54.576 86.903 54.5867 86.6896 54.608C86.487 54.6187 86.3056 54.64 86.1456 54.672L86.0336 53.952C87.1003 53.8133 87.9323 53.504 88.5296 53.024C89.127 52.544 89.4256 51.9307 89.4256 51.184C89.4256 50.5547 89.2443 50.0747 88.8816 49.744C88.5296 49.4133 88.0016 49.248 87.2976 49.248C86.8496 49.248 86.4763 49.3173 86.1776 49.456C85.879 49.584 85.687 49.7547 85.6016 49.968C85.5163 50.1813 85.5643 50.4107 85.7456 50.656L86.0016 50.976C85.9483 51.1467 85.847 51.2907 85.6976 51.408C85.5483 51.5147 85.367 51.568 85.1536 51.568C84.8976 51.568 84.695 51.4987 84.5456 51.36C84.407 51.2107 84.3376 50.9973 84.3376 50.72C84.3376 50.4213 84.4176 50.144 84.5776 49.888C84.7483 49.6213 84.9776 49.3867 85.2656 49.184C85.5643 48.9813 85.9056 48.8213 86.2896 48.704C86.6843 48.5867 87.1003 48.528 87.5376 48.528C88.1883 48.528 88.7376 48.6293 89.1856 48.832C89.6336 49.0347 89.975 49.328 90.2096 49.712C90.4443 50.096 90.5616 50.5547 90.5616 51.088ZM98.8585 51.088C98.8585 51.504 98.7678 51.8933 98.5865 52.256C98.4052 52.608 98.1438 52.9227 97.8025 53.2C97.4718 53.4667 97.0718 53.6907 96.6025 53.872V53.984C97.1998 54.048 97.6958 54.1813 98.0905 54.384C98.4958 54.5867 98.7998 54.864 99.0025 55.216C99.2052 55.568 99.3065 55.9947 99.3065 56.496C99.3065 57.0187 99.1945 57.5093 98.9705 57.968C98.7465 58.4267 98.4318 58.8267 98.0265 59.168C97.6212 59.4987 97.1465 59.76 96.6025 59.952C96.0585 60.1333 95.4772 60.224 94.8585 60.224C94.2932 60.224 93.8078 60.1493 93.4025 60C92.9972 59.84 92.6878 59.6267 92.4745 59.36C92.2612 59.0933 92.1545 58.8053 92.1545 58.496C92.1545 58.1867 92.2398 57.9467 92.4105 57.776C92.5918 57.5947 92.8105 57.504 93.0665 57.504C93.2265 57.504 93.3705 57.5413 93.4985 57.616C93.6372 57.6907 93.7545 57.7973 93.8505 57.936L93.6425 58.32C93.5252 58.5333 93.4932 58.7307 93.5465 58.912C93.6105 59.0933 93.7545 59.2373 93.9785 59.344C94.2132 59.44 94.5225 59.488 94.9065 59.488C95.5358 59.488 96.0852 59.3653 96.5545 59.12C97.0345 58.864 97.4078 58.5173 97.6745 58.08C97.9412 57.6427 98.0745 57.1413 98.0745 56.576C98.0745 55.9253 97.8665 55.4293 97.4505 55.088C97.0452 54.7467 96.4318 54.576 95.6105 54.576C95.4078 54.576 95.1998 54.5867 94.9865 54.608C94.7838 54.6187 94.6025 54.64 94.4425 54.672L94.3305 53.952C95.3972 53.8133 96.2292 53.504 96.8265 53.024C97.4238 52.544 97.7225 51.9307 97.7225 51.184C97.7225 50.5547 97.5412 50.0747 97.1785 49.744C96.8265 49.4133 96.2985 49.248 95.5945 49.248C95.1465 49.248 94.7732 49.3173 94.4745 49.456C94.1758 49.584 93.9838 49.7547 93.8985 49.968C93.8132 50.1813 93.8612 50.4107 94.0425 50.656L94.2985 50.976C94.2452 51.1467 94.1438 51.2907 93.9945 51.408C93.8452 51.5147 93.6638 51.568 93.4505 51.568C93.1945 51.568 92.9918 51.4987 92.8425 51.36C92.7038 51.2107 92.6345 50.9973 92.6345 50.72C92.6345 50.4213 92.7145 50.144 92.8745 49.888C93.0452 49.6213 93.2745 49.3867 93.5625 49.184C93.8612 48.9813 94.2025 48.8213 94.5865 48.704C94.9812 48.5867 95.3972 48.528 95.8345 48.528C96.4852 48.528 97.0345 48.6293 97.4825 48.832C97.9305 49.0347 98.2718 49.328 98.5065 49.712C98.7412 50.096 98.8585 50.5547 98.8585 51.088ZM100.755 55.104C100.755 53.7707 100.926 52.6133 101.267 51.632C101.609 50.6507 102.094 49.8933 102.723 49.36C103.363 48.816 104.121 48.544 104.995 48.544C105.71 48.544 106.323 48.7413 106.835 49.136C107.358 49.5307 107.758 50.1067 108.035 50.864C108.323 51.6107 108.467 52.5227 108.467 53.6C108.467 54.5707 108.366 55.4613 108.163 56.272C107.971 57.0827 107.694 57.7813 107.331 58.368C106.969 58.9547 106.531 59.408 106.019 59.728C105.507 60.048 104.942 60.208 104.323 60.208C103.769 60.208 103.267 60.0907 102.819 59.856C102.382 59.6213 102.009 59.2853 101.699 58.848C101.401 58.4107 101.166 57.8773 100.995 57.248C100.835 56.608 100.755 55.8933 100.755 55.104ZM104.835 49.296C104.27 49.296 103.763 49.52 103.315 49.968C102.878 50.416 102.537 51.0613 102.291 51.904C102.057 52.7467 101.939 53.7653 101.939 54.96C101.939 55.696 101.993 56.3467 102.099 56.912C102.217 57.4667 102.382 57.9307 102.595 58.304C102.819 58.6773 103.091 58.96 103.411 59.152C103.731 59.344 104.089 59.44 104.483 59.44C105.049 59.44 105.539 59.2107 105.955 58.752C106.382 58.2933 106.707 57.632 106.931 56.768C107.166 55.8933 107.283 54.832 107.283 53.584C107.283 52.624 107.187 51.8293 106.995 51.2C106.803 50.56 106.526 50.0853 106.163 49.776C105.801 49.456 105.358 49.296 104.835 49.296ZM53.288 78.624C53.352 78.6347 53.4213 78.64 53.496 78.64C53.5813 78.64 53.6773 78.64 53.784 78.64C54.68 78.64 55.3467 78.416 55.784 77.968C56.232 77.5093 56.456 76.8267 56.456 75.92C56.456 75.376 56.344 74.928 56.12 74.576C55.9067 74.2133 55.592 73.9413 55.176 73.76C54.76 73.5787 54.2373 73.488 53.608 73.488H52.728L52.344 83.184L54.456 83.408L54.392 84H49.816L49.88 83.408L51.272 83.184L51.656 73.616L50.28 73.376L50.344 72.768H53.736C54.3973 72.768 54.968 72.8427 55.448 72.992C55.9387 73.1413 56.344 73.3547 56.664 73.632C56.9947 73.8987 57.24 74.2293 57.4 74.624C57.56 75.0187 57.64 75.4613 57.64 75.952C57.64 76.464 57.5493 76.928 57.368 77.344C57.1973 77.7493 56.9467 78.1013 56.616 78.4C56.2853 78.6987 55.8853 78.928 55.416 79.088C54.9573 79.248 54.4347 79.328 53.848 79.328C53.7413 79.328 53.6347 79.3227 53.528 79.312C53.432 79.3013 53.336 79.2907 53.24 79.28L53.288 78.624ZM66.8823 83.456C66.7863 83.5413 66.6689 83.6267 66.5303 83.712C66.4023 83.7973 66.2583 83.8773 66.0983 83.952C65.9383 84.0267 65.7729 84.0853 65.6023 84.128C65.4423 84.1813 65.2823 84.208 65.1223 84.208C64.8343 84.208 64.6103 84.1493 64.4503 84.032C64.2903 83.9253 64.1783 83.776 64.1143 83.584C64.0609 83.392 64.0449 83.1733 64.0663 82.928L64.4983 78.272C64.5516 77.632 64.5196 77.1947 64.4023 76.96C64.2956 76.7253 64.0929 76.608 63.7943 76.608C63.5596 76.608 63.3569 76.672 63.1863 76.8C63.0263 76.928 62.8716 77.1413 62.7223 77.44C62.5729 77.728 62.4023 78.128 62.2103 78.64L60.2423 84H59.2823L59.7303 72.624L58.3063 72.352L58.3703 71.728H60.5623L60.8023 71.904L60.5943 77.44L60.2103 81.856L60.3223 81.888L61.6183 78.112C61.7569 77.7067 61.9009 77.3547 62.0503 77.056C62.2103 76.7467 62.3809 76.4907 62.5623 76.288C62.7543 76.0853 62.9676 75.936 63.2023 75.84C63.4476 75.744 63.7249 75.696 64.0343 75.696C64.5143 75.696 64.8716 75.808 65.1063 76.032C65.3409 76.2453 65.4849 76.5547 65.5383 76.96C65.6023 77.3653 65.6076 77.8507 65.5543 78.416L65.1703 82.736C65.1489 82.9813 65.1596 83.152 65.2023 83.248C65.2556 83.3333 65.3676 83.376 65.5383 83.376C65.6983 83.376 65.8636 83.3387 66.0343 83.264C66.2049 83.1893 66.3756 83.088 66.5463 82.96L66.8823 83.456ZM71.4666 85.2C71.3066 85.5627 71.1413 85.8933 70.9706 86.192C70.8 86.4907 70.608 86.752 70.3946 86.976C70.192 87.2 69.952 87.3707 69.6746 87.488C69.408 87.6053 69.0933 87.664 68.7306 87.664C68.3146 87.664 67.9786 87.5627 67.7226 87.36C67.4666 87.168 67.3386 86.9173 67.3386 86.608C67.3386 86.3733 67.4133 86.1653 67.5626 85.984C67.712 85.8027 67.9306 85.6853 68.2186 85.632L68.4586 86.064C68.5546 86.2347 68.64 86.368 68.7146 86.464C68.7893 86.5707 68.864 86.6453 68.9386 86.688C69.0133 86.7307 69.104 86.752 69.2106 86.752C69.4133 86.752 69.5893 86.6933 69.7386 86.576C69.888 86.4693 70.0373 86.288 70.1866 86.032C70.3466 85.776 70.5226 85.424 70.7146 84.976L71.1306 84H70.9706C70.6826 84 70.416 83.9253 70.1706 83.776C69.936 83.6267 69.712 83.376 69.4986 83.024C69.3066 82.704 69.1466 82.3147 69.0186 81.856C68.8906 81.3867 68.7946 80.864 68.7306 80.288C68.6773 79.7013 68.6506 79.072 68.6506 78.4C68.6506 78.2613 68.6506 78.112 68.6506 77.952C68.6613 77.792 68.6666 77.6373 68.6666 77.488C68.6773 77.3387 68.6826 77.2107 68.6826 77.104C68.6933 76.8907 68.6613 76.7467 68.5866 76.672C68.5226 76.5867 68.416 76.544 68.2666 76.544C68.1173 76.544 67.9413 76.576 67.7386 76.64C67.5466 76.704 67.376 76.7627 67.2266 76.816L67.0026 76.192C67.12 76.1173 67.2746 76.0427 67.4666 75.968C67.6586 75.8933 67.8613 75.8293 68.0746 75.776C68.2986 75.7227 68.5066 75.696 68.6986 75.696C69.104 75.696 69.3866 75.8133 69.5466 76.048C69.7066 76.2827 69.7813 76.592 69.7706 76.976C69.7706 77.104 69.7653 77.2373 69.7546 77.376C69.744 77.5147 69.7333 77.664 69.7226 77.824C69.7226 77.9733 69.7226 78.144 69.7226 78.336C69.7226 78.9973 69.744 79.5787 69.7866 80.08C69.8293 80.5813 69.8933 81.0187 69.9786 81.392C70.064 81.7653 70.1706 82.0907 70.2986 82.368C70.4266 82.6027 70.5333 82.7787 70.6186 82.896C70.7146 83.0027 70.8106 83.072 70.9066 83.104C71.0026 83.136 71.1146 83.152 71.2426 83.152H71.4986L73.4026 78.576C73.52 78.3093 73.6 78.08 73.6426 77.888C73.6853 77.6853 73.6746 77.52 73.6106 77.392C73.5573 77.2533 73.4346 77.1467 73.2426 77.072L72.6986 76.88C72.6666 76.5387 72.7253 76.256 72.8746 76.032C73.024 75.808 73.2693 75.696 73.6106 75.696C73.856 75.696 74.0533 75.7547 74.2026 75.872C74.3626 75.9787 74.48 76.128 74.5546 76.32C74.64 76.512 74.6826 76.7253 74.6826 76.96C74.6826 77.1307 74.6613 77.3173 74.6186 77.52C74.5866 77.712 74.528 77.936 74.4426 78.192C74.3573 78.448 74.24 78.7573 74.0906 79.12C73.9413 79.472 73.76 79.8933 73.5466 80.384L71.4666 85.2ZM78.1859 83.504C78.6872 83.504 79.1085 83.3707 79.4499 83.104C79.7912 82.8373 79.9619 82.4373 79.9619 81.904C79.9619 81.616 79.8872 81.3813 79.7379 81.2C79.5885 81.008 79.3859 80.8373 79.1299 80.688C78.8739 80.5387 78.5699 80.3947 78.2179 80.256C77.8765 80.096 77.5405 79.9253 77.2099 79.744C76.8899 79.552 76.6232 79.3173 76.4099 79.04C76.2072 78.752 76.1059 78.3893 76.1059 77.952C76.1059 77.7173 76.1485 77.4667 76.2339 77.2C76.3299 76.9333 76.4845 76.688 76.6979 76.464C76.9112 76.24 77.1939 76.0587 77.5459 75.92C77.8979 75.7707 78.3352 75.696 78.8579 75.696C79.2739 75.696 79.6419 75.7653 79.9619 75.904C80.2925 76.032 80.5485 76.208 80.7299 76.432C80.9219 76.6453 81.0179 76.8853 81.0179 77.152C81.0179 77.376 80.9539 77.552 80.8259 77.68C80.6979 77.7973 80.5272 77.856 80.3139 77.856C80.1752 77.856 80.0472 77.8347 79.9299 77.792C79.8125 77.7387 79.7165 77.68 79.6419 77.616L79.7379 77.12C79.7912 76.9067 79.7432 76.7307 79.5939 76.592C79.4445 76.4533 79.1725 76.384 78.7779 76.384C78.3619 76.384 78.0259 76.448 77.7699 76.576C77.5139 76.704 77.3325 76.8693 77.2259 77.072C77.1192 77.2747 77.0659 77.4933 77.0659 77.728C77.0659 77.9733 77.1299 78.1867 77.2579 78.368C77.3965 78.5493 77.5832 78.7147 77.8179 78.864C78.0632 79.0027 78.3405 79.1467 78.6499 79.296C78.9272 79.4133 79.1939 79.5467 79.4499 79.696C79.7165 79.8347 79.9565 79.9947 80.1699 80.176C80.3939 80.3573 80.5699 80.5707 80.6979 80.816C80.8259 81.0613 80.8899 81.3493 80.8899 81.68C80.8899 82.16 80.7779 82.592 80.5539 82.976C80.3299 83.36 80.0045 83.664 79.5779 83.888C79.1619 84.112 78.6445 84.224 78.0259 84.224C77.5459 84.224 77.1192 84.16 76.7459 84.032C76.3725 83.904 76.0792 83.728 75.8659 83.504C75.6632 83.28 75.5619 83.0293 75.5619 82.752C75.5619 82.4853 75.6365 82.2933 75.7859 82.176C75.9459 82.0587 76.1272 82 76.3299 82C76.4472 82 76.5592 82.016 76.6659 82.048C76.7832 82.08 76.8792 82.1173 76.9539 82.16L76.9379 82.672C76.9272 82.9493 77.0125 83.1573 77.1939 83.296C77.3752 83.4347 77.7059 83.504 78.1859 83.504ZM83.7184 77.216C83.7397 76.9813 83.7184 76.8107 83.6544 76.704C83.601 76.5867 83.489 76.528 83.3184 76.528C83.169 76.528 83.009 76.5547 82.8384 76.608C82.6677 76.6507 82.4704 76.72 82.2464 76.816L82.0384 76.208C82.241 76.0907 82.5077 75.9787 82.8384 75.872C83.169 75.7547 83.4784 75.696 83.7664 75.696C84.0544 75.696 84.2784 75.76 84.4384 75.888C84.5984 76.016 84.705 76.2027 84.7584 76.448C84.8117 76.6933 84.8224 76.992 84.7904 77.344L84.3744 82.704C84.3637 82.96 84.3797 83.1413 84.4224 83.248C84.4757 83.3547 84.5824 83.408 84.7424 83.408C84.8917 83.408 85.0464 83.3707 85.2064 83.296C85.377 83.2107 85.5744 83.0827 85.7984 82.912L86.1344 83.424C86.017 83.5307 85.8624 83.648 85.6704 83.776C85.489 83.904 85.281 84.0107 85.0464 84.096C84.8224 84.1813 84.5824 84.224 84.3264 84.224C84.0277 84.224 83.7984 84.1547 83.6384 84.016C83.4784 83.888 83.3717 83.7227 83.3184 83.52C83.2757 83.3067 83.265 83.088 83.2864 82.864L83.7184 77.216ZM83.3344 73.04C83.3344 72.7733 83.409 72.5493 83.5584 72.368C83.7184 72.1867 83.9264 72.096 84.1824 72.096C84.3637 72.096 84.5184 72.1333 84.6464 72.208C84.7744 72.2827 84.8704 72.3893 84.9344 72.528C84.9984 72.656 85.0304 72.816 85.0304 73.008C85.0304 73.264 84.9557 73.4827 84.8064 73.664C84.657 73.8453 84.449 73.936 84.1824 73.936C83.9264 73.936 83.7184 73.856 83.5584 73.696C83.409 73.5253 83.3344 73.3067 83.3344 73.04ZM90.887 75.696C91.367 75.696 91.7777 75.776 92.119 75.936C92.471 76.0853 92.743 76.2933 92.935 76.56C93.127 76.816 93.223 77.12 93.223 77.472C93.223 77.7493 93.1483 77.968 92.999 78.128C92.8603 78.288 92.663 78.368 92.407 78.368C92.2257 78.368 92.0603 78.32 91.911 78.224C91.7723 78.1173 91.6657 77.984 91.591 77.824L91.831 77.52C92.0123 77.296 92.0763 77.104 92.023 76.944C91.9697 76.7733 91.8363 76.6453 91.623 76.56C91.4203 76.464 91.1643 76.416 90.855 76.416C90.4817 76.416 90.135 76.5013 89.815 76.672C89.5057 76.8427 89.239 77.0933 89.015 77.424C88.791 77.7547 88.615 78.1653 88.487 78.656C88.3697 79.136 88.311 79.7013 88.311 80.352C88.311 80.9707 88.391 81.5093 88.551 81.968C88.711 82.416 88.9457 82.7627 89.255 83.008C89.5643 83.2533 89.943 83.376 90.391 83.376C90.647 83.376 90.8977 83.3333 91.143 83.248C91.399 83.1627 91.655 83.0293 91.911 82.848C92.1777 82.656 92.439 82.416 92.695 82.128L93.143 82.624C92.9937 82.7947 92.8177 82.976 92.615 83.168C92.423 83.36 92.2043 83.536 91.959 83.696C91.7137 83.856 91.4417 83.984 91.143 84.08C90.8443 84.176 90.5243 84.224 90.183 84.224C89.5217 84.224 88.967 84.0533 88.519 83.712C88.071 83.3707 87.735 82.912 87.511 82.336C87.2977 81.76 87.191 81.1147 87.191 80.4C87.191 79.7067 87.2763 79.072 87.447 78.496C87.6283 77.9093 87.8843 77.408 88.215 76.992C88.5457 76.576 88.935 76.256 89.383 76.032C89.8417 75.808 90.343 75.696 90.887 75.696ZM97.0453 83.504C97.5466 83.504 97.9679 83.3707 98.3093 83.104C98.6506 82.8373 98.8213 82.4373 98.8213 81.904C98.8213 81.616 98.7466 81.3813 98.5973 81.2C98.4479 81.008 98.2453 80.8373 97.9893 80.688C97.7333 80.5387 97.4293 80.3947 97.0773 80.256C96.7359 80.096 96.3999 79.9253 96.0693 79.744C95.7493 79.552 95.4826 79.3173 95.2693 79.04C95.0666 78.752 94.9653 78.3893 94.9653 77.952C94.9653 77.7173 95.0079 77.4667 95.0933 77.2C95.1893 76.9333 95.3439 76.688 95.5573 76.464C95.7706 76.24 96.0533 76.0587 96.4053 75.92C96.7573 75.7707 97.1946 75.696 97.7173 75.696C98.1333 75.696 98.5013 75.7653 98.8213 75.904C99.1519 76.032 99.4079 76.208 99.5893 76.432C99.7813 76.6453 99.8773 76.8853 99.8773 77.152C99.8773 77.376 99.8133 77.552 99.6853 77.68C99.5573 77.7973 99.3866 77.856 99.1733 77.856C99.0346 77.856 98.9066 77.8347 98.7893 77.792C98.6719 77.7387 98.5759 77.68 98.5013 77.616L98.5973 77.12C98.6506 76.9067 98.6026 76.7307 98.4533 76.592C98.3039 76.4533 98.0319 76.384 97.6373 76.384C97.2213 76.384 96.8853 76.448 96.6293 76.576C96.3733 76.704 96.1919 76.8693 96.0853 77.072C95.9786 77.2747 95.9253 77.4933 95.9253 77.728C95.9253 77.9733 95.9893 78.1867 96.1173 78.368C96.2559 78.5493 96.4426 78.7147 96.6773 78.864C96.9226 79.0027 97.1999 79.1467 97.5093 79.296C97.7866 79.4133 98.0533 79.5467 98.3093 79.696C98.5759 79.8347 98.8159 79.9947 99.0293 80.176C99.2533 80.3573 99.4293 80.5707 99.5573 80.816C99.6853 81.0613 99.7493 81.3493 99.7493 81.68C99.7493 82.16 99.6373 82.592 99.4133 82.976C99.1893 83.36 98.8639 83.664 98.4373 83.888C98.0213 84.112 97.5039 84.224 96.8853 84.224C96.4053 84.224 95.9786 84.16 95.6053 84.032C95.2319 83.904 94.9386 83.728 94.7253 83.504C94.5226 83.28 94.4213 83.0293 94.4213 82.752C94.4213 82.4853 94.4959 82.2933 94.6453 82.176C94.8053 82.0587 94.9866 82 95.1893 82C95.3066 82 95.4186 82.016 95.5253 82.048C95.6426 82.08 95.7386 82.1173 95.8133 82.16L95.7973 82.672C95.7866 82.9493 95.8719 83.1573 96.0533 83.296C96.2346 83.4347 96.5653 83.504 97.0453 83.504ZM115.097 73.952L111.721 83.904L110.425 84.176L107.321 74.032L106.665 83.168L108.137 83.392L108.057 84H104.377L104.457 83.392L105.801 83.168L106.489 73.616L105.129 73.376L105.209 72.768H108.089L111.177 83.024L114.649 72.768H117.577L117.497 73.392L116.153 73.616L116.505 83.184L118.025 83.392L117.945 84H114.009L114.089 83.392L115.417 83.184L115.097 73.952ZM125.341 82.704C125.331 82.9813 125.352 83.168 125.405 83.264C125.469 83.36 125.581 83.408 125.741 83.408C125.891 83.408 126.04 83.376 126.189 83.312C126.349 83.2373 126.509 83.136 126.669 83.008L127.005 83.504C126.877 83.6107 126.723 83.7227 126.541 83.84C126.36 83.9467 126.168 84.0373 125.965 84.112C125.763 84.1867 125.555 84.224 125.341 84.224C125.096 84.224 124.893 84.1653 124.733 84.048C124.573 83.9413 124.461 83.7813 124.397 83.568C124.333 83.344 124.312 83.0667 124.333 82.736L124.653 79.072L124.541 79.056L124.061 80.992C123.933 81.5147 123.784 81.9787 123.613 82.384C123.453 82.7893 123.267 83.1307 123.053 83.408C122.84 83.6747 122.589 83.8773 122.301 84.016C122.024 84.1547 121.704 84.224 121.341 84.224C120.787 84.224 120.328 84.0747 119.965 83.776C119.613 83.4667 119.352 83.056 119.181 82.544C119.011 82.0213 118.925 81.4347 118.925 80.784C118.925 80.0053 119.016 79.3067 119.197 78.688C119.389 78.0587 119.651 77.52 119.981 77.072C120.323 76.624 120.712 76.2827 121.149 76.048C121.587 75.8133 122.061 75.696 122.573 75.696C122.947 75.696 123.288 75.7333 123.597 75.808C123.917 75.8827 124.211 75.9733 124.477 76.08L125.293 75.744L125.549 75.856L125.341 82.704ZM121.485 83.328C121.752 83.328 121.981 83.2747 122.173 83.168C122.376 83.0613 122.563 82.864 122.733 82.576C122.904 82.288 123.075 81.8933 123.245 81.392C123.416 80.88 123.613 80.2187 123.837 79.408L124.509 76.912C124.296 76.7947 124.019 76.6987 123.677 76.624C123.336 76.5387 123.005 76.496 122.685 76.496C122.312 76.496 121.965 76.5973 121.645 76.8C121.325 76.992 121.043 77.2747 120.797 77.648C120.563 78.0107 120.376 78.4533 120.237 78.976C120.109 79.488 120.045 80.064 120.045 80.704C120.045 81.3013 120.099 81.7973 120.205 82.192C120.312 82.576 120.472 82.864 120.685 83.056C120.899 83.2373 121.165 83.328 121.485 83.328ZM130.022 82.272C129.99 82.9973 129.921 83.6533 129.814 84.24C129.718 84.8373 129.59 85.36 129.43 85.808C129.27 86.256 129.078 86.6187 128.854 86.896C128.726 87.0667 128.593 87.2107 128.454 87.328C128.326 87.4453 128.187 87.5307 128.038 87.584C127.889 87.6373 127.729 87.664 127.558 87.664C127.27 87.664 127.046 87.5893 126.886 87.44C126.726 87.3013 126.646 87.136 126.646 86.944C126.646 86.7947 126.678 86.6507 126.742 86.512C126.795 86.3733 126.881 86.2293 126.998 86.08L127.558 86.352C127.729 86.4267 127.894 86.4533 128.054 86.432C128.225 86.4213 128.369 86.3307 128.486 86.16C128.614 86 128.694 85.7547 128.726 85.424C128.758 85.232 128.779 85.0347 128.79 84.832C128.811 84.6293 128.827 84.4267 128.838 84.224C128.849 84.032 128.854 83.8613 128.854 83.712L129.19 77.28C129.211 77.0027 129.19 76.8107 129.126 76.704C129.062 76.5867 128.95 76.528 128.79 76.528C128.651 76.528 128.491 76.5547 128.31 76.608C128.129 76.6507 127.931 76.72 127.718 76.816L127.51 76.208C127.649 76.1227 127.814 76.0427 128.006 75.968C128.209 75.8933 128.417 75.8293 128.63 75.776C128.854 75.7227 129.057 75.696 129.238 75.696C129.526 75.696 129.75 75.76 129.91 75.888C130.07 76.0053 130.177 76.1973 130.23 76.464C130.283 76.72 130.299 77.0507 130.278 77.456L130.022 82.272ZM128.662 73.04C128.662 72.7733 128.737 72.5493 128.886 72.368C129.046 72.1867 129.254 72.096 129.51 72.096C129.691 72.096 129.846 72.1333 129.974 72.208C130.102 72.2827 130.198 72.3893 130.262 72.528C130.326 72.656 130.358 72.816 130.358 73.008C130.358 73.264 130.283 73.4827 130.134 73.664C129.985 73.8453 129.777 73.936 129.51 73.936C129.254 73.936 129.046 73.856 128.886 73.696C128.737 73.5253 128.662 73.3067 128.662 73.04ZM135.405 84.224C134.744 84.224 134.178 84.0587 133.709 83.728C133.24 83.3973 132.882 82.9333 132.637 82.336C132.402 81.7387 132.285 81.04 132.285 80.24C132.285 79.632 132.349 79.056 132.477 78.512C132.616 77.9573 132.829 77.472 133.117 77.056C133.405 76.6293 133.778 76.2987 134.237 76.064C134.706 75.8187 135.266 75.696 135.917 75.696C136.557 75.696 137.112 75.856 137.581 76.176C138.061 76.4853 138.429 76.9333 138.685 77.52C138.952 78.096 139.085 78.7947 139.085 79.616C139.085 80.224 139.016 80.8053 138.877 81.36C138.738 81.9147 138.52 82.4053 138.221 82.832C137.933 83.2587 137.554 83.6 137.085 83.856C136.626 84.1013 136.066 84.224 135.405 84.224ZM135.501 83.472C136.13 83.472 136.621 83.2907 136.973 82.928C137.325 82.5653 137.57 82.0907 137.709 81.504C137.858 80.9067 137.933 80.272 137.933 79.6C137.933 78.9707 137.864 78.4213 137.725 77.952C137.586 77.4827 137.362 77.1147 137.053 76.848C136.744 76.5707 136.317 76.432 135.773 76.432C135.314 76.432 134.93 76.5387 134.621 76.752C134.322 76.9547 134.082 77.2373 133.901 77.6C133.73 77.952 133.608 78.3627 133.533 78.832C133.469 79.3013 133.437 79.7973 133.437 80.32C133.437 80.9493 133.512 81.504 133.661 81.984C133.81 82.4533 134.04 82.8213 134.349 83.088C134.658 83.344 135.042 83.472 135.501 83.472ZM141.683 77.2C141.694 76.9867 141.673 76.8213 141.619 76.704C141.566 76.5867 141.443 76.528 141.251 76.528C141.145 76.528 141.006 76.5547 140.835 76.608C140.675 76.6507 140.478 76.7253 140.243 76.832L140.019 76.192C140.137 76.128 140.291 76.0587 140.483 75.984C140.686 75.8987 140.899 75.8293 141.123 75.776C141.347 75.7227 141.55 75.696 141.731 75.696C142.158 75.696 142.441 75.8347 142.579 76.112C142.729 76.3787 142.777 76.7787 142.723 77.312L142.403 80.16L142.499 80.176L143.507 77.52C143.678 77.0933 143.849 76.7467 144.019 76.48C144.201 76.2027 144.393 76.0053 144.595 75.888C144.798 75.76 145.033 75.696 145.299 75.696C145.545 75.696 145.747 75.7387 145.907 75.824C146.067 75.8987 146.19 76.0107 146.275 76.16C146.371 76.3093 146.419 76.4747 146.419 76.656C146.419 76.8587 146.361 77.0453 146.243 77.216C146.137 77.3867 145.993 77.52 145.811 77.616L145.443 77.2C145.347 77.0933 145.257 77.0187 145.171 76.976C145.086 76.9227 144.995 76.896 144.899 76.896C144.835 76.896 144.771 76.912 144.707 76.944C144.654 76.9653 144.595 77.0187 144.531 77.104C144.467 77.1787 144.393 77.2907 144.307 77.44C144.233 77.5893 144.142 77.7867 144.035 78.032C143.662 78.896 143.369 79.5893 143.155 80.112C142.942 80.6347 142.777 81.056 142.659 81.376C142.553 81.6853 142.478 81.952 142.435 82.176C142.393 82.3893 142.361 82.6187 142.339 82.864L142.227 84H141.331L141.683 77.2Z" fill="white"/>
<path d="M58.848 113.304C58.848 112.771 59.0293 112.227 59.392 111.672C59.7547 111.117 60.1813 110.675 60.672 110.344L60.832 110.504C60.608 110.771 60.4053 111.101 60.224 111.496C60.0427 111.88 59.9467 112.216 59.936 112.504C60.2133 112.76 60.4267 113.027 60.576 113.304C60.512 113.432 60.3893 113.581 60.208 113.752C60.0267 113.912 59.8613 114.029 59.712 114.104C59.5733 114.019 59.4133 113.896 59.232 113.736C59.0507 113.565 58.9227 113.421 58.848 113.304ZM61.296 113.304C61.296 112.771 61.4773 112.227 61.84 111.672C62.2027 111.117 62.6293 110.675 63.12 110.344L63.28 110.504C63.056 110.771 62.8533 111.101 62.672 111.496C62.4907 111.88 62.3947 112.216 62.384 112.504C62.6613 112.76 62.8747 113.027 63.024 113.304C62.96 113.432 62.8373 113.581 62.656 113.752C62.4747 113.912 62.3093 114.029 62.16 114.104C62.0213 114.019 61.8613 113.896 61.68 113.736C61.4987 113.565 61.3707 113.421 61.296 113.304ZM67.9154 121.184C67.4247 121.184 66.974 121.144 66.5634 121.064C66.158 120.984 65.7954 120.885 65.4754 120.768C65.1554 120.651 64.8887 120.533 64.6754 120.416L64.5394 119.096C64.95 119.341 65.4327 119.557 65.9874 119.744C66.5474 119.925 67.1554 120.016 67.8114 120.016C68.6007 120.016 69.1847 119.877 69.5634 119.6C69.942 119.317 70.1314 118.896 70.1314 118.336V118.208C70.1314 117.84 70.0567 117.539 69.9074 117.304C69.758 117.069 69.5047 116.872 69.1474 116.712C68.7954 116.552 68.3154 116.403 67.7074 116.264C66.9394 116.083 66.3234 115.869 65.8594 115.624C65.4007 115.373 65.0674 115.061 64.8594 114.688C64.6567 114.315 64.5554 113.851 64.5554 113.296V113.224C64.5554 112.387 64.83 111.741 65.3794 111.288C65.9287 110.829 66.7607 110.6 67.8754 110.6C68.606 110.6 69.2274 110.675 69.7394 110.824C70.2567 110.973 70.678 111.139 71.0034 111.32L71.1234 112.536C70.7447 112.312 70.302 112.123 69.7954 111.968C69.294 111.808 68.718 111.728 68.0674 111.728C67.55 111.728 67.1314 111.789 66.8114 111.912C66.4914 112.035 66.2594 112.211 66.1154 112.44C65.9714 112.669 65.8994 112.947 65.8994 113.272V113.304C65.8994 113.635 65.9687 113.917 66.1074 114.152C66.2514 114.387 66.4994 114.589 66.8514 114.76C67.2087 114.931 67.7154 115.096 68.3714 115.256C69.1234 115.432 69.726 115.635 70.1794 115.864C70.6327 116.093 70.9607 116.392 71.1634 116.76C71.3714 117.128 71.4754 117.608 71.4754 118.2V118.368C71.4754 119.291 71.1767 119.992 70.5794 120.472C69.9874 120.947 69.0994 121.184 67.9154 121.184ZM73.2675 121V113.192H74.5635V121H73.2675ZM73.9155 111.912C73.6488 111.912 73.4488 111.843 73.3155 111.704C73.1875 111.56 73.1235 111.365 73.1235 111.12V111.08C73.1235 110.829 73.1875 110.635 73.3155 110.496C73.4488 110.357 73.6488 110.288 73.9155 110.288C74.1822 110.288 74.3822 110.357 74.5155 110.496C74.6488 110.635 74.7155 110.829 74.7155 111.08V111.12C74.7155 111.371 74.6488 111.565 74.5155 111.704C74.3822 111.843 74.1822 111.912 73.9155 111.912ZM81.9363 121V116.144C81.9363 115.723 81.8776 115.36 81.7603 115.056C81.6483 114.752 81.4616 114.517 81.2003 114.352C80.9443 114.181 80.5923 114.096 80.1443 114.096C79.7336 114.096 79.3763 114.173 79.0723 114.328C78.7736 114.483 78.5309 114.693 78.3443 114.96C78.1576 115.221 78.0269 115.52 77.9523 115.856L77.7203 114.936H78.0003C78.0856 114.584 78.2349 114.264 78.4483 113.976C78.6616 113.683 78.9469 113.451 79.3043 113.28C79.6669 113.104 80.1096 113.016 80.6323 113.016C81.2509 113.016 81.7496 113.133 82.1283 113.368C82.5123 113.603 82.7923 113.941 82.9683 114.384C83.1443 114.821 83.2323 115.36 83.2323 116V121H81.9363ZM76.7122 121V113.192H78.0082L77.9523 115.064L78.0082 115.136V121H76.7122ZM88.2835 118.664C87.2222 118.664 86.4062 118.432 85.8355 117.968C85.2702 117.504 84.9875 116.84 84.9875 115.976V115.776C84.9875 115.237 85.0968 114.768 85.3155 114.368C85.5395 113.968 85.8942 113.656 86.3795 113.432C86.8648 113.203 87.4995 113.077 88.2835 113.056L92.2675 112.928V113.952L89.9155 113.872L89.9075 113.928C90.2755 114.003 90.5768 114.131 90.8115 114.312C91.0462 114.493 91.2195 114.72 91.3315 114.992C91.4488 115.264 91.5075 115.581 91.5075 115.944V116.12C91.5075 116.947 91.2355 117.579 90.6915 118.016C90.1475 118.448 89.3448 118.664 88.2835 118.664ZM88.2275 122.968H88.4115C88.8915 122.968 89.3022 122.931 89.6435 122.856C89.9902 122.787 90.2568 122.675 90.4435 122.52C90.6302 122.365 90.7235 122.16 90.7235 121.904V121.872C90.7235 121.573 90.6142 121.344 90.3955 121.184C90.1822 121.029 89.8142 120.928 89.2915 120.88L87.0835 120.68L87.4515 120.664C87.1528 120.707 86.8888 120.776 86.6595 120.872C86.4355 120.968 86.2595 121.093 86.1315 121.248C86.0035 121.408 85.9395 121.605 85.9395 121.84V121.856C85.9395 122.128 86.0328 122.347 86.2195 122.512C86.4062 122.677 86.6702 122.795 87.0115 122.864C87.3528 122.933 87.7582 122.968 88.2275 122.968ZM88.1555 124C87.4515 124 86.8435 123.939 86.3315 123.816C85.8248 123.699 85.4302 123.504 85.1475 123.232C84.8702 122.965 84.7315 122.605 84.7315 122.152V122.12C84.7315 121.8 84.8062 121.533 84.9555 121.32C85.1102 121.107 85.3155 120.939 85.5715 120.816C85.8328 120.693 86.1235 120.611 86.4435 120.568L86.4355 120.52C85.9982 120.445 85.6755 120.317 85.4675 120.136C85.2595 119.949 85.1555 119.709 85.1555 119.416V119.408C85.1555 119.205 85.2008 119.032 85.2915 118.888C85.3875 118.744 85.5288 118.629 85.7155 118.544C85.9075 118.459 86.1502 118.405 86.4435 118.384V118.224L87.9315 118.6L87.3235 118.584C86.9608 118.589 86.7102 118.635 86.5715 118.72C86.4328 118.8 86.3635 118.923 86.3635 119.088V119.096C86.3635 119.272 86.4622 119.405 86.6595 119.496C86.8568 119.587 87.1928 119.659 87.6675 119.712L89.5635 119.904C90.3902 119.989 90.9928 120.189 91.3715 120.504C91.7502 120.813 91.9395 121.272 91.9395 121.88V121.92C91.9395 122.405 91.7955 122.803 91.5075 123.112C91.2195 123.421 90.8115 123.645 90.2835 123.784C89.7555 123.928 89.1235 124 88.3875 124H88.1555ZM88.2675 117.704C88.7155 117.704 89.0862 117.64 89.3795 117.512C89.6782 117.379 89.9022 117.181 90.0515 116.92C90.2062 116.653 90.2835 116.328 90.2835 115.944V115.752C90.2835 115.379 90.2088 115.061 90.0595 114.8C89.9155 114.539 89.6968 114.341 89.4035 114.208C89.1102 114.069 88.7422 114 88.2995 114H88.2515C87.7715 114 87.3795 114.075 87.0755 114.224C86.7768 114.368 86.5582 114.573 86.4195 114.84C86.2862 115.101 86.2195 115.408 86.2195 115.76V115.944C86.2195 116.328 86.2942 116.651 86.4435 116.912C86.5982 117.173 86.8275 117.371 87.1315 117.504C87.4355 117.637 87.8142 117.704 88.2675 117.704ZM93.4866 121V110.4H94.7746V121H93.4866ZM100.211 121.176C99.0217 121.176 98.1257 120.885 97.523 120.304C96.9203 119.723 96.619 118.891 96.619 117.808V116.416C96.619 115.317 96.899 114.472 97.459 113.88C98.019 113.283 98.8377 112.984 99.915 112.984C100.64 112.984 101.246 113.12 101.731 113.392C102.216 113.659 102.582 114.04 102.827 114.536C103.072 115.032 103.195 115.624 103.195 116.312V116.6C103.195 116.771 103.187 116.941 103.171 117.112C103.16 117.283 103.144 117.451 103.123 117.616H101.931C101.942 117.36 101.947 117.117 101.947 116.888C101.952 116.659 101.955 116.448 101.955 116.256C101.955 115.781 101.878 115.381 101.723 115.056C101.574 114.725 101.347 114.475 101.043 114.304C100.744 114.128 100.368 114.04 99.915 114.04C99.243 114.04 98.739 114.235 98.403 114.624C98.067 115.013 97.899 115.571 97.899 116.296V117.04L97.907 117.2V117.944C97.907 118.269 97.955 118.563 98.051 118.824C98.147 119.085 98.2963 119.312 98.499 119.504C98.707 119.691 98.9683 119.835 99.283 119.936C99.603 120.032 99.9817 120.08 100.419 120.08C100.926 120.08 101.398 120.013 101.835 119.88C102.272 119.747 102.683 119.565 103.067 119.336L102.947 120.456C102.6 120.675 102.198 120.851 101.739 120.984C101.28 121.112 100.771 121.176 100.211 121.176ZM97.299 117.616V116.64H102.851V117.616H97.299ZM112.407 121L112.463 119.104L112.415 118.904V116.416L112.423 115.96C112.423 115.325 112.26 114.856 111.935 114.552C111.615 114.248 111.105 114.096 110.407 114.096C109.847 114.096 109.332 114.176 108.863 114.336C108.399 114.496 107.985 114.683 107.623 114.896L107.743 113.792C107.945 113.669 108.185 113.549 108.463 113.432C108.745 113.309 109.065 113.208 109.423 113.128C109.785 113.048 110.183 113.008 110.615 113.008C111.175 113.008 111.649 113.077 112.039 113.216C112.433 113.349 112.751 113.544 112.991 113.8C113.236 114.056 113.415 114.365 113.527 114.728C113.639 115.091 113.695 115.496 113.695 115.944V121H112.407ZM109.719 121.168C108.945 121.168 108.351 120.981 107.935 120.608C107.524 120.229 107.319 119.691 107.319 118.992V118.76C107.319 118.04 107.54 117.504 107.983 117.152C108.431 116.795 109.14 116.547 110.111 116.408L112.583 116.056L112.655 117L110.271 117.344C109.673 117.429 109.247 117.576 108.991 117.784C108.735 117.987 108.607 118.288 108.607 118.688V118.816C108.607 119.227 108.732 119.541 108.983 119.76C109.239 119.979 109.62 120.088 110.127 120.088C110.575 120.088 110.959 120.011 111.279 119.856C111.599 119.701 111.857 119.493 112.055 119.232C112.252 118.971 112.385 118.68 112.455 118.36L112.655 119.24H112.407C112.332 119.581 112.191 119.899 111.983 120.192C111.78 120.485 111.495 120.723 111.127 120.904C110.759 121.08 110.289 121.168 109.719 121.168ZM120.905 121V116.144C120.905 115.723 120.846 115.36 120.729 115.056C120.617 114.752 120.43 114.517 120.169 114.352C119.913 114.181 119.561 114.096 119.113 114.096C118.702 114.096 118.345 114.173 118.041 114.328C117.742 114.483 117.5 114.693 117.313 114.96C117.126 115.221 116.996 115.52 116.921 115.856L116.689 114.936H116.969C117.054 114.584 117.204 114.264 117.417 113.976C117.63 113.683 117.916 113.451 118.273 113.28C118.636 113.104 119.078 113.016 119.601 113.016C120.22 113.016 120.718 113.133 121.097 113.368C121.481 113.603 121.761 113.941 121.937 114.384C122.113 114.821 122.201 115.36 122.201 116V121H120.905ZM115.681 121V113.192H116.977L116.921 115.064L116.977 115.136V121H115.681ZM126.788 121.168C125.85 121.168 125.135 120.877 124.644 120.296C124.154 119.715 123.908 118.867 123.908 117.752V116.464C123.908 115.344 124.156 114.491 124.652 113.904C125.148 113.312 125.879 113.016 126.844 113.016C127.324 113.016 127.74 113.099 128.092 113.264C128.444 113.424 128.73 113.651 128.948 113.944C129.167 114.237 129.314 114.584 129.388 114.984H129.812L129.428 116.176C129.412 115.717 129.308 115.333 129.116 115.024C128.93 114.709 128.674 114.472 128.348 114.312C128.028 114.152 127.66 114.072 127.244 114.072C126.583 114.072 126.076 114.264 125.724 114.648C125.378 115.032 125.204 115.597 125.204 116.344V117.832C125.204 118.568 125.378 119.128 125.724 119.512C126.076 119.896 126.583 120.088 127.244 120.088C127.639 120.088 127.988 120.013 128.292 119.864C128.596 119.709 128.847 119.499 129.044 119.232C129.247 118.96 129.386 118.653 129.46 118.312L129.78 119.24H129.396C129.322 119.592 129.178 119.915 128.964 120.208C128.756 120.501 128.474 120.736 128.116 120.912C127.764 121.083 127.322 121.168 126.788 121.168ZM129.396 121L129.452 119.112L129.428 118.696V115.432L129.436 115.16L129.404 112.944V110.4H130.692V121H129.396ZM136.897 116.224L136.601 115.224L136.921 115.208C137.092 114.547 137.385 114.027 137.801 113.648C138.217 113.264 138.769 113.072 139.457 113.072C139.628 113.072 139.78 113.085 139.913 113.112C140.052 113.139 140.175 113.171 140.281 113.208L140.361 114.464C140.228 114.421 140.079 114.387 139.913 114.36C139.753 114.333 139.575 114.32 139.377 114.32C138.791 114.32 138.279 114.483 137.841 114.808C137.409 115.133 137.095 115.605 136.897 116.224ZM135.665 121V113.192H136.929L136.865 115.496L136.961 115.592V121H135.665ZM144.695 121.176C143.506 121.176 142.61 120.885 142.007 120.304C141.405 119.723 141.103 118.891 141.103 117.808V116.416C141.103 115.317 141.383 114.472 141.943 113.88C142.503 113.283 143.322 112.984 144.399 112.984C145.125 112.984 145.73 113.12 146.215 113.392C146.701 113.659 147.066 114.04 147.311 114.536C147.557 115.032 147.679 115.624 147.679 116.312V116.6C147.679 116.771 147.671 116.941 147.655 117.112C147.645 117.283 147.629 117.451 147.607 117.616H146.415C146.426 117.36 146.431 117.117 146.431 116.888C146.437 116.659 146.439 116.448 146.439 116.256C146.439 115.781 146.362 115.381 146.207 115.056C146.058 114.725 145.831 114.475 145.527 114.304C145.229 114.128 144.853 114.04 144.399 114.04C143.727 114.04 143.223 114.235 142.887 114.624C142.551 115.013 142.383 115.571 142.383 116.296V117.04L142.391 117.2V117.944C142.391 118.269 142.439 118.563 142.535 118.824C142.631 119.085 142.781 119.312 142.983 119.504C143.191 119.691 143.453 119.835 143.767 119.936C144.087 120.032 144.466 120.08 144.903 120.08C145.41 120.08 145.882 120.013 146.319 119.88C146.757 119.747 147.167 119.565 147.551 119.336L147.431 120.456C147.085 120.675 146.682 120.851 146.223 120.984C145.765 121.112 145.255 121.176 144.695 121.176ZM141.783 117.616V116.64H147.335V117.616H141.783ZM153.969 121L154.025 119.104L153.977 118.904V116.416L153.985 115.96C153.985 115.325 153.823 114.856 153.497 114.552C153.177 114.248 152.668 114.096 151.969 114.096C151.409 114.096 150.895 114.176 150.425 114.336C149.961 114.496 149.548 114.683 149.185 114.896L149.305 113.792C149.508 113.669 149.748 113.549 150.025 113.432C150.308 113.309 150.628 113.208 150.985 113.128C151.348 113.048 151.745 113.008 152.177 113.008C152.737 113.008 153.212 113.077 153.601 113.216C153.996 113.349 154.313 113.544 154.553 113.8C154.799 114.056 154.977 114.365 155.089 114.728C155.201 115.091 155.257 115.496 155.257 115.944V121H153.969ZM151.281 121.168C150.508 121.168 149.913 120.981 149.497 120.608C149.087 120.229 148.881 119.691 148.881 118.992V118.76C148.881 118.04 149.103 117.504 149.545 117.152C149.993 116.795 150.703 116.547 151.673 116.408L154.145 116.056L154.217 117L151.833 117.344C151.236 117.429 150.809 117.576 150.553 117.784C150.297 117.987 150.169 118.288 150.169 118.688V118.816C150.169 119.227 150.295 119.541 150.545 119.76C150.801 119.979 151.183 120.088 151.689 120.088C152.137 120.088 152.521 120.011 152.841 119.856C153.161 119.701 153.42 119.493 153.617 119.232C153.815 118.971 153.948 118.68 154.017 118.36L154.217 119.24H153.969C153.895 119.581 153.753 119.899 153.545 120.192C153.343 120.485 153.057 120.723 152.689 120.904C152.321 121.08 151.852 121.168 151.281 121.168ZM159.82 121.168C158.881 121.168 158.166 120.877 157.676 120.296C157.185 119.715 156.94 118.867 156.94 117.752V116.464C156.94 115.344 157.188 114.491 157.684 113.904C158.18 113.312 158.91 113.016 159.876 113.016C160.356 113.016 160.772 113.099 161.124 113.264C161.476 113.424 161.761 113.651 161.98 113.944C162.198 114.237 162.345 114.584 162.42 114.984H162.844L162.46 116.176C162.444 115.717 162.34 115.333 162.148 115.024C161.961 114.709 161.705 114.472 161.38 114.312C161.06 114.152 160.692 114.072 160.276 114.072C159.614 114.072 159.108 114.264 158.756 114.648C158.409 115.032 158.236 115.597 158.236 116.344V117.832C158.236 118.568 158.409 119.128 158.756 119.512C159.108 119.896 159.614 120.088 160.276 120.088C160.67 120.088 161.02 120.013 161.324 119.864C161.628 119.709 161.878 119.499 162.076 119.232C162.278 118.96 162.417 118.653 162.492 118.312L162.812 119.24H162.428C162.353 119.592 162.209 119.915 161.996 120.208C161.788 120.501 161.505 120.736 161.148 120.912C160.796 121.083 160.353 121.168 159.82 121.168ZM162.428 121L162.484 119.112L162.46 118.696V115.432L162.468 115.16L162.436 112.944V110.4H163.724V121H162.428ZM169.349 119.792L168.669 120.088L171.005 113.192H172.341L168.669 123.752H167.357L168.589 120.184L169.157 120.68H167.685L165.133 113.192H166.477L168.605 119.792H169.349ZM179.443 121.16C178.84 121.16 178.355 121.069 177.987 120.888C177.619 120.707 177.352 120.432 177.187 120.064C177.022 119.696 176.939 119.237 176.939 118.688V113.76H178.219V118.536C178.219 119.048 178.336 119.427 178.571 119.672C178.806 119.912 179.2 120.032 179.755 120.032C180.07 120.032 180.371 119.997 180.659 119.928C180.952 119.859 181.227 119.76 181.483 119.632L181.363 120.744C181.112 120.872 180.819 120.973 180.483 121.048C180.147 121.123 179.8 121.16 179.443 121.16ZM175.659 114.344V113.304H181.403L181.283 114.344H175.659ZM176.947 113.432L176.939 111.24L178.243 111.072L178.187 113.432H176.947ZM185.816 121.2C184.696 121.2 183.846 120.899 183.264 120.296C182.688 119.688 182.4 118.816 182.4 117.68V116.488C182.4 115.357 182.691 114.491 183.272 113.888C183.854 113.285 184.702 112.984 185.816 112.984C186.936 112.984 187.784 113.285 188.36 113.888C188.942 114.491 189.232 115.357 189.232 116.488V117.68C189.232 118.816 188.942 119.688 188.36 120.296C187.784 120.899 186.936 121.2 185.816 121.2ZM185.816 120.144C186.51 120.144 187.035 119.939 187.392 119.528C187.755 119.117 187.936 118.525 187.936 117.752V116.416C187.936 115.648 187.755 115.061 187.392 114.656C187.035 114.245 186.51 114.04 185.816 114.04C185.128 114.04 184.603 114.245 184.24 114.656C183.878 115.061 183.696 115.648 183.696 116.416V117.752C183.696 118.525 183.878 119.117 184.24 119.528C184.603 119.939 185.128 120.144 185.816 120.144ZM203.636 121V116.112C203.636 115.701 203.583 115.347 203.476 115.048C203.375 114.744 203.204 114.509 202.964 114.344C202.729 114.179 202.412 114.096 202.012 114.096C201.633 114.096 201.305 114.173 201.028 114.328C200.751 114.483 200.527 114.691 200.356 114.952C200.185 115.208 200.065 115.501 199.996 115.832L199.796 114.912H199.956C200.041 114.576 200.185 114.264 200.388 113.976C200.591 113.688 200.865 113.456 201.212 113.28C201.559 113.104 201.988 113.016 202.5 113.016C203.081 113.016 203.548 113.131 203.9 113.36C204.257 113.589 204.519 113.925 204.684 114.368C204.849 114.805 204.932 115.339 204.932 115.968V121H203.636ZM193.884 121V113.192H195.18L195.124 115.064L195.18 115.144V121H193.884ZM198.764 121V116.112C198.764 115.701 198.711 115.347 198.604 115.048C198.503 114.744 198.335 114.509 198.1 114.344C197.865 114.179 197.548 114.096 197.148 114.096C196.764 114.096 196.433 114.173 196.156 114.328C195.879 114.483 195.655 114.693 195.484 114.96C195.313 115.221 195.193 115.52 195.124 115.856L194.884 114.936H195.172C195.252 114.584 195.391 114.264 195.588 113.976C195.785 113.683 196.052 113.451 196.388 113.28C196.729 113.104 197.143 113.016 197.628 113.016C198.348 113.016 198.895 113.203 199.268 113.576C199.647 113.949 199.884 114.493 199.98 115.208C200.007 115.315 200.025 115.432 200.036 115.56C200.047 115.683 200.052 115.805 200.052 115.928V121H198.764ZM206.971 121V113.192H208.267V121H206.971ZM207.619 111.912C207.352 111.912 207.152 111.843 207.019 111.704C206.891 111.56 206.827 111.365 206.827 111.12V111.08C206.827 110.829 206.891 110.635 207.019 110.496C207.152 110.357 207.352 110.288 207.619 110.288C207.885 110.288 208.085 110.357 208.219 110.496C208.352 110.635 208.419 110.829 208.419 111.08V111.12C208.419 111.371 208.352 111.565 208.219 111.704C208.085 111.843 207.885 111.912 207.619 111.912ZM215.639 121V116.144C215.639 115.723 215.581 115.36 215.463 115.056C215.351 114.752 215.165 114.517 214.903 114.352C214.647 114.181 214.295 114.096 213.847 114.096C213.437 114.096 213.079 114.173 212.775 114.328C212.477 114.483 212.234 114.693 212.047 114.96C211.861 115.221 211.73 115.52 211.655 115.856L211.423 114.936H211.703C211.789 114.584 211.938 114.264 212.151 113.976C212.365 113.683 212.65 113.451 213.007 113.28C213.37 113.104 213.813 113.016 214.335 113.016C214.954 113.016 215.453 113.133 215.831 113.368C216.215 113.603 216.495 113.941 216.671 114.384C216.847 114.821 216.935 115.36 216.935 116V121H215.639ZM210.415 121V113.192H211.711L211.655 115.064L211.711 115.136V121H210.415ZM221.987 118.664C220.925 118.664 220.109 118.432 219.539 117.968C218.973 117.504 218.691 116.84 218.691 115.976V115.776C218.691 115.237 218.8 114.768 219.019 114.368C219.243 113.968 219.597 113.656 220.083 113.432C220.568 113.203 221.203 113.077 221.987 113.056L225.971 112.928V113.952L223.619 113.872L223.611 113.928C223.979 114.003 224.28 114.131 224.515 114.312C224.749 114.493 224.923 114.72 225.035 114.992C225.152 115.264 225.211 115.581 225.211 115.944V116.12C225.211 116.947 224.939 117.579 224.395 118.016C223.851 118.448 223.048 118.664 221.987 118.664ZM221.931 122.968H222.115C222.595 122.968 223.005 122.931 223.347 122.856C223.693 122.787 223.96 122.675 224.147 122.52C224.333 122.365 224.427 122.16 224.427 121.904V121.872C224.427 121.573 224.317 121.344 224.099 121.184C223.885 121.029 223.517 120.928 222.995 120.88L220.787 120.68L221.155 120.664C220.856 120.707 220.592 120.776 220.363 120.872C220.139 120.968 219.963 121.093 219.835 121.248C219.707 121.408 219.643 121.605 219.643 121.84V121.856C219.643 122.128 219.736 122.347 219.923 122.512C220.109 122.677 220.373 122.795 220.715 122.864C221.056 122.933 221.461 122.968 221.931 122.968ZM221.859 124C221.155 124 220.547 123.939 220.035 123.816C219.528 123.699 219.133 123.504 218.851 123.232C218.573 122.965 218.435 122.605 218.435 122.152V122.12C218.435 121.8 218.509 121.533 218.659 121.32C218.813 121.107 219.019 120.939 219.275 120.816C219.536 120.693 219.827 120.611 220.147 120.568L220.139 120.52C219.701 120.445 219.379 120.317 219.171 120.136C218.963 119.949 218.859 119.709 218.859 119.416V119.408C218.859 119.205 218.904 119.032 218.995 118.888C219.091 118.744 219.232 118.629 219.419 118.544C219.611 118.459 219.853 118.405 220.147 118.384V118.224L221.635 118.6L221.027 118.584C220.664 118.589 220.413 118.635 220.275 118.72C220.136 118.8 220.067 118.923 220.067 119.088V119.096C220.067 119.272 220.165 119.405 220.363 119.496C220.56 119.587 220.896 119.659 221.371 119.712L223.267 119.904C224.093 119.989 224.696 120.189 225.075 120.504C225.453 120.813 225.643 121.272 225.643 121.88V121.92C225.643 122.405 225.499 122.803 225.211 123.112C224.923 123.421 224.515 123.645 223.987 123.784C223.459 123.928 222.827 124 222.091 124H221.859ZM221.971 117.704C222.419 117.704 222.789 117.64 223.083 117.512C223.381 117.379 223.605 117.181 223.755 116.92C223.909 116.653 223.987 116.328 223.987 115.944V115.752C223.987 115.379 223.912 115.061 223.763 114.8C223.619 114.539 223.4 114.341 223.107 114.208C222.813 114.069 222.445 114 222.003 114H221.955C221.475 114 221.083 114.075 220.779 114.224C220.48 114.368 220.261 114.573 220.123 114.84C219.989 115.101 219.923 115.408 219.923 115.76V115.944C219.923 116.328 219.997 116.651 220.147 116.912C220.301 117.173 220.531 117.371 220.835 117.504C221.139 117.637 221.517 117.704 221.971 117.704ZM227.19 121V110.4H228.478V121H227.19ZM233.914 121.176C232.725 121.176 231.829 120.885 231.226 120.304C230.623 119.723 230.322 118.891 230.322 117.808V116.416C230.322 115.317 230.602 114.472 231.162 113.88C231.722 113.283 232.541 112.984 233.618 112.984C234.343 112.984 234.949 113.12 235.434 113.392C235.919 113.659 236.285 114.04 236.53 114.536C236.775 115.032 236.898 115.624 236.898 116.312V116.6C236.898 116.771 236.89 116.941 236.874 117.112C236.863 117.283 236.847 117.451 236.826 117.616H235.634C235.645 117.36 235.65 117.117 235.65 116.888C235.655 116.659 235.658 116.448 235.658 116.256C235.658 115.781 235.581 115.381 235.426 115.056C235.277 114.725 235.05 114.475 234.746 114.304C234.447 114.128 234.071 114.04 233.618 114.04C232.946 114.04 232.442 114.235 232.106 114.624C231.77 115.013 231.602 115.571 231.602 116.296V117.04L231.61 117.2V117.944C231.61 118.269 231.658 118.563 231.754 118.824C231.85 119.085 231.999 119.312 232.202 119.504C232.41 119.691 232.671 119.835 232.986 119.936C233.306 120.032 233.685 120.08 234.122 120.08C234.629 120.08 235.101 120.013 235.538 119.88C235.975 119.747 236.386 119.565 236.77 119.336L236.65 120.456C236.303 120.675 235.901 120.851 235.442 120.984C234.983 121.112 234.474 121.176 233.914 121.176ZM231.002 117.616V116.64H236.554V117.616H231.002ZM239.059 121.152C238.782 121.152 238.577 121.077 238.443 120.928C238.315 120.773 238.251 120.557 238.251 120.28V120.2C238.251 119.928 238.315 119.717 238.443 119.568C238.577 119.419 238.782 119.344 239.059 119.344C239.331 119.344 239.534 119.419 239.667 119.568C239.801 119.717 239.867 119.928 239.867 120.2V120.28C239.867 120.557 239.801 120.773 239.667 120.928C239.534 121.077 239.331 121.152 239.059 121.152ZM245.602 111.144C245.602 111.677 245.42 112.221 245.058 112.776C244.695 113.331 244.268 113.773 243.778 114.104L243.618 113.944C243.842 113.677 244.044 113.352 244.226 112.968C244.407 112.573 244.503 112.232 244.514 111.944C244.236 111.688 244.023 111.421 243.874 111.144C243.938 111.016 244.06 110.872 244.242 110.712C244.423 110.541 244.588 110.419 244.738 110.344C244.876 110.429 245.036 110.557 245.218 110.728C245.399 110.888 245.527 111.027 245.602 111.144ZM243.154 111.144C243.154 111.677 242.972 112.221 242.61 112.776C242.247 113.331 241.82 113.773 241.33 114.104L241.17 113.944C241.394 113.677 241.596 113.352 241.778 112.968C241.959 112.573 242.055 112.232 242.066 111.944C241.788 111.688 241.575 111.421 241.426 111.144C241.49 111.016 241.612 110.872 241.794 110.712C241.975 110.541 242.14 110.419 242.29 110.344C242.428 110.429 242.588 110.557 242.77 110.728C242.951 110.888 243.079 111.027 243.154 111.144Z" fill="white"/>
</svg>
