<svg width="115" height="57" viewBox="0 0 115 57" fill="none" xmlns="http://www.w3.org/2000/svg">
<rect width="115" height="57" rx="20" fill="#8BDFF9"/>
<path d="M34.8 38.24C33.696 38.24 32.672 38.072 31.728 37.736C30.784 37.384 30.032 36.912 29.472 36.32C28.928 35.728 28.656 35.088 28.656 34.4C28.656 34.144 28.736 33.944 28.896 33.8C29.072 33.64 29.312 33.552 29.616 33.536C29.84 34.624 30.408 35.48 31.32 36.104C32.248 36.728 33.424 37.04 34.848 37.04C36.288 37.04 37.44 36.72 38.304 36.08C39.184 35.44 39.624 34.6 39.624 33.56C39.624 32.904 39.464 32.352 39.144 31.904C38.84 31.456 38.328 31.072 37.608 30.752C36.904 30.416 35.928 30.112 34.68 29.84C32.696 29.376 31.272 28.792 30.408 28.088C29.56 27.384 29.136 26.456 29.136 25.304C29.136 23.96 29.632 22.904 30.624 22.136C31.616 21.352 32.976 20.96 34.704 20.96C36.208 20.96 37.48 21.312 38.52 22.016C39.56 22.704 40.256 23.672 40.608 24.92C40.464 25.096 40.224 25.184 39.888 25.184C39.696 25.184 39.528 25.136 39.384 25.04C39.256 24.944 39.136 24.776 39.024 24.536C38.64 23.752 38.08 23.152 37.344 22.736C36.608 22.32 35.728 22.112 34.704 22.112C33.328 22.112 32.288 22.384 31.584 22.928C30.88 23.456 30.528 24.248 30.528 25.304C30.528 25.848 30.664 26.312 30.936 26.696C31.208 27.08 31.656 27.424 32.28 27.728C32.92 28.016 33.792 28.304 34.896 28.592C36.512 29.008 37.752 29.424 38.616 29.84C39.496 30.256 40.12 30.744 40.488 31.304C40.856 31.848 41.04 32.552 41.04 33.416C41.04 34.904 40.48 36.08 39.36 36.944C38.256 37.808 36.736 38.24 34.8 38.24ZM54.8784 30.632C54.8784 30.968 54.8624 31.28 54.8304 31.568H44.9424C44.9904 33.28 45.4064 34.632 46.1904 35.624C46.9744 36.6 48.0304 37.088 49.3584 37.088C50.2544 37.088 51.0064 36.92 51.6144 36.584C52.2384 36.248 52.7824 35.704 53.2464 34.952C53.4224 34.68 53.6144 34.544 53.8224 34.544C53.9984 34.544 54.2624 34.656 54.6144 34.88C54.2144 35.952 53.5584 36.784 52.6464 37.376C51.7344 37.952 50.6384 38.24 49.3584 38.24C48.1904 38.24 47.1744 37.96 46.3104 37.4C45.4464 36.84 44.7744 36.048 44.2944 35.024C43.8304 33.984 43.5984 32.768 43.5984 31.376C43.5984 29.232 44.1104 27.56 45.1344 26.36C46.1744 25.16 47.6144 24.56 49.4544 24.56C51.1664 24.56 52.4944 25.096 53.4384 26.168C54.3984 27.24 54.8784 28.728 54.8784 30.632ZM53.5344 30.464C53.5344 28.912 53.1824 27.736 52.4784 26.936C51.7744 26.12 50.7424 25.712 49.3824 25.712C48.1024 25.712 47.0704 26.128 46.2864 26.96C45.5184 27.792 45.0784 28.96 44.9664 30.464H53.5344ZM68.3081 35.168C68.3081 35.984 68.3321 36.568 68.3801 36.92C68.4281 37.256 68.5241 37.56 68.6681 37.832C68.5401 37.912 68.3881 37.976 68.2121 38.024C68.0521 38.088 67.8921 38.12 67.7321 38.12C67.4601 38.12 67.2681 37.928 67.1561 37.544C67.0441 37.16 66.9881 36.496 66.9881 35.552V29.048C66.9881 27.864 66.7481 27 66.2681 26.456C65.8041 25.896 65.0601 25.616 64.0361 25.616C63.2521 25.616 62.4521 25.808 61.6361 26.192C60.8201 26.576 60.0441 27.12 59.3081 27.824V38H57.9881V28.688C57.9881 27.472 57.9641 26.608 57.9161 26.096C57.8841 25.568 57.8121 25.224 57.7001 25.064C58.0681 24.824 58.3961 24.704 58.6841 24.704C58.9081 24.704 59.0681 24.824 59.1641 25.064C59.2601 25.304 59.3081 25.688 59.3081 26.216V26.48C60.8281 25.2 62.4601 24.56 64.2041 24.56C65.5801 24.56 66.6041 24.936 67.2761 25.688C67.9641 26.424 68.3081 27.552 68.3081 29.072V35.168ZM82.6446 34.928C82.6446 36.208 82.7566 37.168 82.9806 37.808C82.6766 38 82.3966 38.096 82.1406 38.096C81.7086 38.096 81.4446 37.552 81.3486 36.464C80.3566 37.648 78.9566 38.24 77.1486 38.24C75.4046 38.24 74.0366 37.64 73.0446 36.44C72.0526 35.224 71.5566 33.56 71.5566 31.448C71.5566 29.288 72.0766 27.6 73.1166 26.384C74.1726 25.168 75.6286 24.56 77.4846 24.56C78.1566 24.56 78.8446 24.672 79.5486 24.896C80.2526 25.12 80.8446 25.416 81.3246 25.784V19.016H82.6446V34.928ZM77.2686 37.112C78.9486 37.112 80.3006 36.44 81.3246 35.096V27.104C80.8126 26.64 80.2206 26.28 79.5486 26.024C78.8766 25.768 78.1886 25.64 77.4846 25.64C76.0446 25.64 74.9166 26.152 74.1006 27.176C73.3006 28.2 72.9006 29.624 72.9006 31.448C72.9006 33.24 73.2846 34.632 74.0526 35.624C74.8206 36.616 75.8926 37.112 77.2686 37.112Z" fill="black"/>
</svg>
