<svg width="454" height="62" viewBox="0 0 454 62" fill="none" xmlns="http://www.w3.org/2000/svg">
<rect width="454" height="62" rx="20" fill="#D9D9D9"/>
<path d="M29.8 40.24C28.696 40.24 27.672 40.072 26.728 39.736C25.784 39.384 25.032 38.912 24.472 38.32C23.928 37.728 23.656 37.088 23.656 36.4C23.656 36.144 23.736 35.944 23.896 35.8C24.072 35.64 24.312 35.552 24.616 35.536C24.84 36.624 25.408 37.48 26.32 38.104C27.248 38.728 28.424 39.04 29.848 39.04C31.288 39.04 32.44 38.72 33.304 38.08C34.184 37.44 34.624 36.6 34.624 35.56C34.624 34.904 34.464 34.352 34.144 33.904C33.84 33.456 33.328 33.072 32.608 32.752C31.904 32.416 30.928 32.112 29.68 31.84C27.696 31.376 26.272 30.792 25.408 30.088C24.56 29.384 24.136 28.456 24.136 27.304C24.136 25.96 24.632 24.904 25.624 24.136C26.616 23.352 27.976 22.96 29.704 22.96C31.208 22.96 32.48 23.312 33.52 24.016C34.56 24.704 35.256 25.672 35.608 26.92C35.464 27.096 35.224 27.184 34.888 27.184C34.696 27.184 34.528 27.136 34.384 27.04C34.256 26.944 34.136 26.776 34.024 26.536C33.64 25.752 33.08 25.152 32.344 24.736C31.608 24.32 30.728 24.112 29.704 24.112C28.328 24.112 27.288 24.384 26.584 24.928C25.88 25.456 25.528 26.248 25.528 27.304C25.528 27.848 25.664 28.312 25.936 28.696C26.208 29.08 26.656 29.424 27.28 29.728C27.92 30.016 28.792 30.304 29.896 30.592C31.512 31.008 32.752 31.424 33.616 31.84C34.496 32.256 35.12 32.744 35.488 33.304C35.856 33.848 36.04 34.552 36.04 35.416C36.04 36.904 35.48 38.08 34.36 38.944C33.256 39.808 31.736 40.24 29.8 40.24ZM49.8784 32.632C49.8784 32.968 49.8624 33.28 49.8304 33.568H39.9424C39.9904 35.28 40.4064 36.632 41.1904 37.624C41.9744 38.6 43.0304 39.088 44.3584 39.088C45.2544 39.088 46.0064 38.92 46.6144 38.584C47.2384 38.248 47.7824 37.704 48.2464 36.952C48.4224 36.68 48.6144 36.544 48.8224 36.544C48.9984 36.544 49.2624 36.656 49.6144 36.88C49.2144 37.952 48.5584 38.784 47.6464 39.376C46.7344 39.952 45.6384 40.24 44.3584 40.24C43.1904 40.24 42.1744 39.96 41.3104 39.4C40.4464 38.84 39.7744 38.048 39.2944 37.024C38.8304 35.984 38.5984 34.768 38.5984 33.376C38.5984 31.232 39.1104 29.56 40.1344 28.36C41.1744 27.16 42.6144 26.56 44.4544 26.56C46.1664 26.56 47.4944 27.096 48.4384 28.168C49.3984 29.24 49.8784 30.728 49.8784 32.632ZM48.5344 32.464C48.5344 30.912 48.1824 29.736 47.4784 28.936C46.7744 28.12 45.7424 27.712 44.3824 27.712C43.1024 27.712 42.0704 28.128 41.2864 28.96C40.5184 29.792 40.0784 30.96 39.9664 32.464H48.5344ZM63.3081 37.168C63.3081 37.984 63.3321 38.568 63.3801 38.92C63.4281 39.256 63.5241 39.56 63.6681 39.832C63.5401 39.912 63.3881 39.976 63.2121 40.024C63.0521 40.088 62.8921 40.12 62.7321 40.12C62.4601 40.12 62.2681 39.928 62.1561 39.544C62.0441 39.16 61.9881 38.496 61.9881 37.552V31.048C61.9881 29.864 61.7481 29 61.2681 28.456C60.8041 27.896 60.0601 27.616 59.0361 27.616C58.2521 27.616 57.4521 27.808 56.6361 28.192C55.8201 28.576 55.0441 29.12 54.3081 29.824V40H52.9881V30.688C52.9881 29.472 52.9641 28.608 52.9161 28.096C52.8841 27.568 52.8121 27.224 52.7001 27.064C53.0681 26.824 53.3961 26.704 53.6841 26.704C53.9081 26.704 54.0681 26.824 54.1641 27.064C54.2601 27.304 54.3081 27.688 54.3081 28.216V28.48C55.8281 27.2 57.4601 26.56 59.2041 26.56C60.5801 26.56 61.6041 26.936 62.2761 27.688C62.9641 28.424 63.3081 29.552 63.3081 31.072V37.168ZM77.6446 36.928C77.6446 38.208 77.7566 39.168 77.9806 39.808C77.6766 40 77.3966 40.096 77.1406 40.096C76.7086 40.096 76.4446 39.552 76.3486 38.464C75.3566 39.648 73.9566 40.24 72.1486 40.24C70.4046 40.24 69.0366 39.64 68.0446 38.44C67.0526 37.224 66.5566 35.56 66.5566 33.448C66.5566 31.288 67.0766 29.6 68.1166 28.384C69.1726 27.168 70.6286 26.56 72.4846 26.56C73.1566 26.56 73.8446 26.672 74.5486 26.896C75.2526 27.12 75.8446 27.416 76.3246 27.784V21.016H77.6446V36.928ZM72.2686 39.112C73.9486 39.112 75.3006 38.44 76.3246 37.096V29.104C75.8126 28.64 75.2206 28.28 74.5486 28.024C73.8766 27.768 73.1886 27.64 72.4846 27.64C71.0446 27.64 69.9166 28.152 69.1006 29.176C68.3006 30.2 67.9006 31.624 67.9006 33.448C67.9006 35.24 68.2846 36.632 69.0526 37.624C69.8206 38.616 70.8926 39.112 72.2686 39.112ZM97.4318 36.832C97.4318 37.568 97.4878 38.144 97.5998 38.56C97.7278 38.96 97.9438 39.304 98.2478 39.592C98.1678 39.736 98.0398 39.864 97.8638 39.976C97.6878 40.072 97.5198 40.12 97.3598 40.12C97.0238 40.12 96.7438 39.912 96.5198 39.496C96.3118 39.064 96.1838 38.496 96.1358 37.792C95.5918 38.544 94.8718 39.144 93.9758 39.592C93.0798 40.024 92.1278 40.24 91.1198 40.24C89.9678 40.24 89.0238 39.92 88.2878 39.28C87.5678 38.624 87.2078 37.784 87.2078 36.76C87.2078 35.272 87.9598 34.112 89.4638 33.28C90.9678 32.432 93.1838 31.944 96.1118 31.816V31.048C96.1118 28.792 94.9678 27.664 92.6798 27.664C91.8798 27.664 91.1358 27.816 90.4478 28.12C89.7758 28.424 89.1118 28.912 88.4558 29.584C88.3758 29.664 88.2638 29.704 88.1198 29.704C87.9758 29.704 87.8238 29.648 87.6638 29.536C87.5038 29.424 87.3598 29.264 87.2318 29.056C87.9198 28.256 88.7438 27.64 89.7038 27.208C90.6638 26.776 91.6798 26.56 92.7518 26.56C94.2238 26.56 95.3678 26.96 96.1838 27.76C97.0158 28.544 97.4318 29.64 97.4318 31.048V36.832ZM91.2398 39.136C92.1678 39.136 93.0558 38.88 93.9038 38.368C94.7518 37.84 95.4878 37.104 96.1118 36.16V32.92C93.5678 33.032 91.6718 33.4 90.4238 34.024C89.1758 34.648 88.5518 35.552 88.5518 36.736C88.5518 37.488 88.7918 38.08 89.2718 38.512C89.7518 38.928 90.4078 39.136 91.2398 39.136ZM121.202 26.56C122.45 26.56 123.442 26.92 124.178 27.64C124.914 28.344 125.282 29.304 125.282 30.52V40H123.962V30.592C123.962 28.624 122.97 27.64 120.986 27.64C120.282 27.64 119.594 27.8 118.922 28.12C118.25 28.44 117.634 28.904 117.074 29.512C117.122 29.8 117.146 30.104 117.146 30.424V40H115.826V30.472C115.826 29.544 115.602 28.84 115.154 28.36C114.722 27.88 114.082 27.64 113.234 27.64C111.746 27.64 110.362 28.304 109.082 29.632V40H107.762V30.688C107.762 29.472 107.738 28.608 107.69 28.096C107.658 27.568 107.586 27.224 107.474 27.064C107.842 26.824 108.17 26.704 108.458 26.704C108.874 26.704 109.082 27.208 109.082 28.216V28.312C110.346 27.144 111.786 26.56 113.402 26.56C114.154 26.56 114.81 26.728 115.37 27.064C115.946 27.384 116.386 27.84 116.69 28.432C117.938 27.184 119.442 26.56 121.202 26.56ZM139.949 32.632C139.949 32.968 139.933 33.28 139.901 33.568H130.013C130.061 35.28 130.477 36.632 131.261 37.624C132.045 38.6 133.101 39.088 134.429 39.088C135.325 39.088 136.077 38.92 136.685 38.584C137.309 38.248 137.853 37.704 138.317 36.952C138.493 36.68 138.685 36.544 138.893 36.544C139.069 36.544 139.333 36.656 139.685 36.88C139.285 37.952 138.629 38.784 137.717 39.376C136.805 39.952 135.709 40.24 134.429 40.24C133.261 40.24 132.245 39.96 131.381 39.4C130.517 38.84 129.845 38.048 129.365 37.024C128.901 35.984 128.669 34.768 128.669 33.376C128.669 31.232 129.181 29.56 130.205 28.36C131.245 27.16 132.685 26.56 134.525 26.56C136.237 26.56 137.565 27.096 138.509 28.168C139.469 29.24 139.949 30.728 139.949 32.632ZM138.605 32.464C138.605 30.912 138.253 29.736 137.549 28.936C136.845 28.12 135.813 27.712 134.453 27.712C133.173 27.712 132.141 28.128 131.357 28.96C130.589 29.792 130.149 30.96 130.037 32.464H138.605ZM146.73 40.24C145.914 40.24 145.13 40.12 144.378 39.88C143.626 39.624 143.018 39.296 142.554 38.896C142.09 38.496 141.858 38.08 141.858 37.648C141.858 37.456 141.914 37.288 142.026 37.144C142.154 37 142.306 36.912 142.482 36.88C142.962 37.632 143.53 38.2 144.186 38.584C144.858 38.952 145.738 39.136 146.826 39.136C147.898 39.136 148.738 38.896 149.346 38.416C149.954 37.936 150.258 37.272 150.258 36.424C150.258 35.88 150.09 35.44 149.754 35.104C149.434 34.768 149.026 34.512 148.53 34.336C148.05 34.144 147.394 33.944 146.562 33.736C145.618 33.496 144.85 33.264 144.258 33.04C143.682 32.816 143.186 32.472 142.77 32.008C142.37 31.528 142.17 30.904 142.17 30.136C142.17 29.336 142.386 28.672 142.818 28.144C143.25 27.6 143.802 27.2 144.474 26.944C145.146 26.688 145.858 26.56 146.61 26.56C147.634 26.56 148.53 26.776 149.298 27.208C150.082 27.624 150.722 28.232 151.218 29.032C151.042 29.208 150.89 29.336 150.762 29.416C150.65 29.48 150.53 29.512 150.402 29.512C150.21 29.512 150.026 29.4 149.85 29.176C149.434 28.664 148.97 28.28 148.458 28.024C147.962 27.768 147.338 27.64 146.586 27.64C145.674 27.64 144.93 27.84 144.354 28.24C143.778 28.64 143.49 29.248 143.49 30.064C143.49 30.576 143.65 31 143.97 31.336C144.29 31.656 144.682 31.904 145.146 32.08C145.626 32.256 146.266 32.44 147.066 32.632C148.042 32.888 148.826 33.136 149.418 33.376C150.026 33.616 150.538 33.984 150.954 34.48C151.37 34.96 151.578 35.608 151.578 36.424C151.578 37.592 151.138 38.52 150.258 39.208C149.394 39.896 148.218 40.24 146.73 40.24ZM158.379 40.24C157.563 40.24 156.779 40.12 156.027 39.88C155.275 39.624 154.667 39.296 154.203 38.896C153.739 38.496 153.507 38.08 153.507 37.648C153.507 37.456 153.563 37.288 153.675 37.144C153.803 37 153.955 36.912 154.131 36.88C154.611 37.632 155.179 38.2 155.835 38.584C156.507 38.952 157.387 39.136 158.475 39.136C159.547 39.136 160.387 38.896 160.995 38.416C161.603 37.936 161.907 37.272 161.907 36.424C161.907 35.88 161.739 35.44 161.403 35.104C161.083 34.768 160.675 34.512 160.179 34.336C159.699 34.144 159.043 33.944 158.211 33.736C157.267 33.496 156.499 33.264 155.907 33.04C155.331 32.816 154.835 32.472 154.419 32.008C154.019 31.528 153.819 30.904 153.819 30.136C153.819 29.336 154.035 28.672 154.467 28.144C154.899 27.6 155.451 27.2 156.123 26.944C156.795 26.688 157.507 26.56 158.259 26.56C159.283 26.56 160.179 26.776 160.947 27.208C161.731 27.624 162.371 28.232 162.867 29.032C162.691 29.208 162.539 29.336 162.411 29.416C162.299 29.48 162.179 29.512 162.051 29.512C161.859 29.512 161.675 29.4 161.499 29.176C161.083 28.664 160.619 28.28 160.107 28.024C159.611 27.768 158.987 27.64 158.235 27.64C157.323 27.64 156.579 27.84 156.003 28.24C155.427 28.64 155.139 29.248 155.139 30.064C155.139 30.576 155.299 31 155.619 31.336C155.939 31.656 156.331 31.904 156.795 32.08C157.275 32.256 157.915 32.44 158.715 32.632C159.691 32.888 160.475 33.136 161.067 33.376C161.675 33.616 162.187 33.984 162.603 34.48C163.019 34.96 163.227 35.608 163.227 36.424C163.227 37.592 162.787 38.52 161.907 39.208C161.043 39.896 159.867 40.24 158.379 40.24ZM175.619 36.832C175.619 37.568 175.675 38.144 175.787 38.56C175.915 38.96 176.131 39.304 176.435 39.592C176.355 39.736 176.227 39.864 176.051 39.976C175.875 40.072 175.707 40.12 175.547 40.12C175.211 40.12 174.931 39.912 174.707 39.496C174.499 39.064 174.371 38.496 174.323 37.792C173.779 38.544 173.059 39.144 172.163 39.592C171.267 40.024 170.315 40.24 169.307 40.24C168.155 40.24 167.211 39.92 166.475 39.28C165.755 38.624 165.395 37.784 165.395 36.76C165.395 35.272 166.147 34.112 167.651 33.28C169.155 32.432 171.371 31.944 174.299 31.816V31.048C174.299 28.792 173.155 27.664 170.867 27.664C170.067 27.664 169.323 27.816 168.635 28.12C167.963 28.424 167.299 28.912 166.643 29.584C166.563 29.664 166.451 29.704 166.307 29.704C166.163 29.704 166.011 29.648 165.851 29.536C165.691 29.424 165.547 29.264 165.419 29.056C166.107 28.256 166.931 27.64 167.891 27.208C168.851 26.776 169.867 26.56 170.939 26.56C172.411 26.56 173.555 26.96 174.371 27.76C175.203 28.544 175.619 29.64 175.619 31.048V36.832ZM169.427 39.136C170.355 39.136 171.243 38.88 172.091 38.368C172.939 37.84 173.675 37.104 174.299 36.16V32.92C171.755 33.032 169.859 33.4 168.611 34.024C167.363 34.648 166.739 35.552 166.739 36.736C166.739 37.488 166.979 38.08 167.459 38.512C167.939 38.928 168.595 39.136 169.427 39.136ZM190.298 26.104C190.586 26.104 190.794 26.168 190.922 26.296C191.05 26.408 191.114 26.616 191.114 26.92C191.114 27.08 191.106 27.2 191.09 27.28C189.842 27.28 188.954 27.496 188.426 27.928C189.194 28.696 189.578 29.712 189.578 30.976C189.578 34.048 187.81 35.584 184.274 35.584C183.074 35.584 182.21 35.664 181.682 35.824C181.17 35.984 180.914 36.256 180.914 36.64C180.914 37.088 181.202 37.4 181.778 37.576C182.354 37.736 183.386 37.816 184.874 37.816C186.762 37.816 188.202 38.096 189.194 38.656C190.186 39.216 190.682 40.032 190.682 41.104C190.682 42.368 190.17 43.304 189.146 43.912C188.138 44.536 186.594 44.848 184.514 44.848C182.674 44.848 181.258 44.552 180.266 43.96C179.274 43.384 178.778 42.544 178.778 41.44C178.778 40.736 178.994 40.144 179.426 39.664C179.858 39.168 180.482 38.808 181.298 38.584V38.512C180.818 38.4 180.434 38.184 180.146 37.864C179.874 37.544 179.738 37.16 179.738 36.712C179.738 36.264 179.898 35.888 180.218 35.584C180.554 35.28 181.018 35.08 181.61 34.984C180.89 34.6 180.322 34.088 179.906 33.448C179.506 32.808 179.306 32.08 179.306 31.264C179.306 28.128 181.114 26.56 184.73 26.56C185.866 26.56 186.834 26.808 187.634 27.304C188.05 26.936 188.49 26.648 188.954 26.44C189.434 26.216 189.882 26.104 190.298 26.104ZM184.418 34.456C185.73 34.456 186.69 34.192 187.298 33.664C187.906 33.12 188.21 32.256 188.21 31.072C188.21 29.904 187.898 29.04 187.274 28.48C186.666 27.92 185.714 27.64 184.418 27.64C181.906 27.64 180.65 28.784 180.65 31.072C180.65 32.16 180.97 33 181.61 33.592C182.266 34.168 183.202 34.456 184.418 34.456ZM189.314 41.248C189.314 40.448 188.946 39.872 188.21 39.52C187.49 39.168 186.29 38.992 184.61 38.992C183.074 38.992 181.946 39.176 181.226 39.544C180.506 39.896 180.146 40.464 180.146 41.248C180.146 42.096 180.498 42.72 181.202 43.12C181.922 43.52 183.026 43.72 184.514 43.72C186.178 43.72 187.394 43.52 188.162 43.12C188.93 42.736 189.314 42.112 189.314 41.248ZM204.097 32.632C204.097 32.968 204.081 33.28 204.049 33.568H194.161C194.209 35.28 194.625 36.632 195.409 37.624C196.193 38.6 197.249 39.088 198.577 39.088C199.473 39.088 200.225 38.92 200.833 38.584C201.457 38.248 202.001 37.704 202.465 36.952C202.641 36.68 202.833 36.544 203.041 36.544C203.217 36.544 203.481 36.656 203.833 36.88C203.433 37.952 202.777 38.784 201.865 39.376C200.953 39.952 199.857 40.24 198.577 40.24C197.409 40.24 196.393 39.96 195.529 39.4C194.665 38.84 193.993 38.048 193.513 37.024C193.049 35.984 192.817 34.768 192.817 33.376C192.817 31.232 193.329 29.56 194.353 28.36C195.393 27.16 196.833 26.56 198.673 26.56C200.385 26.56 201.713 27.096 202.657 28.168C203.617 29.24 204.097 30.728 204.097 32.632ZM202.753 32.464C202.753 30.912 202.401 29.736 201.697 28.936C200.993 28.12 199.961 27.712 198.601 27.712C197.321 27.712 196.289 28.128 195.505 28.96C194.737 29.792 194.297 30.96 194.185 32.464H202.753ZM208.671 40C208.063 40 207.759 39.696 207.759 39.088V38.896C207.759 38.288 208.063 37.984 208.671 37.984H208.839C209.431 37.984 209.727 38.288 209.727 38.896V39.088C209.727 39.696 209.431 40 208.839 40H208.671ZM216.054 40C215.446 40 215.142 39.696 215.142 39.088V38.896C215.142 38.288 215.446 37.984 216.054 37.984H216.222C216.814 37.984 217.11 38.288 217.11 38.896V39.088C217.11 39.696 216.814 40 216.222 40H216.054ZM223.437 40C222.829 40 222.525 39.696 222.525 39.088V38.896C222.525 38.288 222.829 37.984 223.437 37.984H223.605C224.197 37.984 224.493 38.288 224.493 38.896V39.088C224.493 39.696 224.197 40 223.605 40H223.437Z" fill="black"/>
</svg>
